<svg xmlns="http://www.w3.org/2000/svg" width="1531" height="232" viewBox="0 0 1531 232">
  <g fill="#132f55">
  <path d="M 442,0 L 444,0 L 446,0 L 448,0 L 450,0 L 452,0 L 454,0 L 455,0 L 455,1 L 457,1 L 459,1 L 461,1 L 462,1 L 462,2 L 464,2 L 466,2 L 466,3 L 468,3 L 469,3 L 469,4 L 471,4 L 472,4 L 472,5 L 474,5 L 474,6 L 476,6 L 476,7 L 478,7 L 478,8 L 479,8 L 479,9 L 481,9 L 481,10 L 482,10 L 482,11 L 484,11 L 484,12 L 485,12 L 485,13 L 486,13 L 486,14 L 487,14 L 487,15 L 488,15 L 488,16 L 489,16 L 489,17 L 490,17 L 490,18 L 491,18 L 491,19 L 492,19 L 492,20 L 493,20 L 493,21 L 494,21 L 494,22 L 495,22 L 495,23 L 496,23 L 496,25 L 497,25 L 497,26 L 498,26 L 498,28 L 499,28 L 499,30 L 500,30 L 500,32 L 501,32 L 501,34 L 502,34 L 502,36 L 502,37 L 503,37 L 503,39 L 504,39 L 504,41 L 504,43 L 505,43 L 505,45 L 505,47 L 505,48 L 506,48 L 506,50 L 506,52 L 506,54 L 506,56 L 506,58 L 506,60 L 506,62 L 506,64 L 506,66 L 506,68 L 506,70 L 505,70 L 505,72 L 505,74 L 504,74 L 504,76 L 504,77 L 503,77 L 503,79 L 503,80 L 502,80 L 502,82 L 502,83 L 501,83 L 501,85 L 500,85 L 500,86 L 499,86 L 499,88 L 498,88 L 498,90 L 497,90 L 497,91 L 496,91 L 496,93 L 495,93 L 495,94 L 494,94 L 494,95 L 493,95 L 493,97 L 492,97 L 492,98 L 491,98 L 491,99 L 490,99 L 490,100 L 489,100 L 489,101 L 488,101 L 488,102 L 487,102 L 487,103 L 486,103 L 486,104 L 484,104 L 484,105 L 483,105 L 483,106 L 481,106 L 481,107 L 480,107 L 480,108 L 478,108 L 478,109 L 476,109 L 476,110 L 474,110 L 474,111 L 472,111 L 472,112 L 470,112 L 470,113 L 468,113 L 466,113 L 466,114 L 464,114 L 463,114 L 463,115 L 461,115 L 459,115 L 457,115 L 457,116 L 455,116 L 453,116 L 451,116 L 449,116 L 447,116 L 445,116 L 443,116 L 442,116 L 442,115 L 440,115 L 438,115 L 436,115 L 435,115 L 435,114 L 433,114 L 431,114 L 431,113 L 429,113 L 428,113 L 428,112 L 426,112 L 426,111 L 424,111 L 424,110 L 422,110 L 422,109 L 420,109 L 420,108 L 418,108 L 418,107 L 416,107 L 416,106 L 415,106 L 415,105 L 413,105 L 413,104 L 412,104 L 412,103 L 411,103 L 411,102 L 410,102 L 410,101 L 409,101 L 409,100 L 408,100 L 408,99 L 407,99 L 407,98 L 406,98 L 406,97 L 405,97 L 405,96 L 404,96 L 404,95 L 403,95 L 403,93 L 402,93 L 402,92 L 401,92 L 401,91 L 400,91 L 400,89 L 399,89 L 399,87 L 398,87 L 398,86 L 397,86 L 397,84 L 397,83 L 396,83 L 396,81 L 395,81 L 395,79 L 395,78 L 394,78 L 394,76 L 393,76 L 393,74 L 393,72 L 393,71 L 392,71 L 392,69 L 392,67 L 392,65 L 391,65 L 391,63 L 391,61 L 391,59 L 391,57 L 391,55 L 391,53 L 391,51 L 391,49 L 392,49 L 392,47 L 392,45 L 393,45 L 393,43 L 393,41 L 394,41 L 394,39 L 394,37 L 395,37 L 395,35 L 396,35 L 396,33 L 397,33 L 397,31 L 398,31 L 398,29 L 399,29 L 399,27 L 400,27 L 400,26 L 401,26 L 401,24 L 402,24 L 402,23 L 403,23 L 403,22 L 404,22 L 404,20 L 405,20 L 405,19 L 406,19 L 406,18 L 407,18 L 407,17 L 408,17 L 408,16 L 409,16 L 409,15 L 410,15 L 410,14 L 411,14 L 411,13 L 412,13 L 412,12 L 414,12 L 414,11 L 415,11 L 415,10 L 417,10 L 417,9 L 418,9 L 418,8 L 420,8 L 420,7 L 422,7 L 422,6 L 424,6 L 424,5 L 426,5 L 426,4 L 428,4 L 428,3 L 430,3 L 432,3 L 432,2 L 434,2 L 436,2 L 436,1 L 438,1 L 440,1 L 442,1 L 442,0 Z" fill="#132f55"/>
  <path d="M 234,2 L 236,2 L 238,2 L 240,2 L 242,2 L 244,2 L 246,2 L 248,2 L 250,2 L 252,2 L 254,2 L 256,2 L 258,2 L 260,2 L 262,2 L 264,2 L 266,2 L 268,2 L 270,2 L 272,2 L 274,2 L 276,2 L 278,2 L 280,2 L 281,2 L 281,3 L 283,3 L 285,3 L 286,3 L 286,4 L 288,4 L 290,4 L 290,5 L 292,5 L 294,5 L 294,6 L 296,6 L 296,7 L 298,7 L 299,7 L 299,8 L 301,8 L 301,9 L 303,9 L 303,10 L 304,10 L 304,11 L 306,11 L 306,12 L 307,12 L 307,13 L 309,13 L 309,14 L 310,14 L 310,15 L 311,15 L 311,16 L 312,16 L 312,17 L 313,17 L 313,18 L 314,18 L 314,19 L 315,19 L 315,20 L 316,20 L 316,21 L 317,21 L 317,22 L 318,22 L 318,23 L 319,23 L 319,25 L 320,25 L 320,26 L 321,26 L 321,28 L 322,28 L 322,29 L 323,29 L 323,31 L 324,31 L 324,33 L 325,33 L 325,35 L 325,36 L 326,36 L 326,38 L 327,38 L 327,40 L 327,41 L 328,41 L 328,43 L 328,45 L 328,46 L 329,46 L 329,48 L 329,50 L 329,52 L 329,53 L 330,53 L 330,55 L 330,57 L 330,59 L 330,61 L 330,62 L 329,62 L 329,64 L 329,66 L 329,68 L 329,70 L 329,71 L 328,71 L 328,73 L 328,75 L 327,75 L 327,77 L 326,77 L 326,79 L 326,80 L 325,80 L 325,82 L 325,83 L 324,83 L 324,85 L 323,85 L 323,86 L 322,86 L 322,88 L 321,88 L 321,89 L 320,89 L 320,91 L 319,91 L 319,92 L 318,92 L 318,94 L 317,94 L 317,95 L 316,95 L 316,96 L 315,96 L 315,97 L 314,97 L 314,98 L 313,98 L 313,99 L 312,99 L 312,100 L 311,100 L 311,101 L 309,101 L 309,102 L 308,102 L 308,103 L 307,103 L 307,104 L 305,104 L 305,105 L 304,105 L 304,106 L 302,106 L 302,107 L 300,107 L 300,108 L 298,108 L 298,109 L 296,109 L 295,109 L 295,110 L 293,110 L 293,111 L 291,111 L 289,111 L 289,112 L 287,112 L 285,112 L 285,113 L 283,113 L 281,113 L 279,113 L 277,113 L 277,114 L 275,114 L 273,114 L 271,114 L 269,114 L 267,114 L 265,114 L 263,114 L 261,114 L 259,114 L 257,114 L 255,114 L 253,114 L 251,114 L 249,114 L 247,114 L 245,114 L 243,114 L 241,114 L 239,114 L 237,114 L 235,114 L 235,113 L 234,113 L 234,111 L 234,109 L 234,107 L 234,105 L 234,103 L 234,101 L 234,99 L 234,97 L 234,95 L 234,93 L 234,91 L 234,89 L 234,87 L 234,85 L 234,83 L 234,81 L 234,79 L 234,77 L 234,75 L 234,73 L 234,71 L 234,69 L 234,67 L 234,65 L 234,63 L 234,61 L 234,59 L 234,57 L 234,55 L 234,53 L 234,51 L 234,49 L 234,47 L 234,45 L 234,43 L 234,41 L 234,39 L 234,37 L 234,35 L 234,33 L 234,31 L 234,29 L 234,27 L 234,25 L 234,23 L 234,21 L 234,19 L 234,17 L 234,15 L 234,13 L 234,11 L 234,9 L 234,7 L 234,5 L 234,3 L 234,2 Z" fill="#132f55"/>
  <path d="M 444,13 L 443,13 L 443,14 L 441,14 L 439,14 L 438,14 L 438,15 L 436,15 L 434,15 L 434,16 L 432,16 L 431,16 L 431,17 L 429,17 L 429,18 L 427,18 L 427,19 L 425,19 L 425,20 L 424,20 L 424,21 L 422,21 L 422,22 L 421,22 L 421,23 L 420,23 L 420,24 L 419,24 L 419,25 L 418,25 L 418,26 L 417,26 L 417,27 L 416,27 L 416,28 L 415,28 L 415,29 L 414,29 L 414,31 L 413,31 L 413,32 L 412,32 L 412,34 L 411,34 L 411,36 L 410,36 L 410,38 L 409,38 L 409,40 L 408,40 L 408,42 L 408,43 L 407,43 L 407,45 L 407,47 L 406,47 L 406,49 L 406,51 L 406,53 L 405,53 L 405,55 L 405,57 L 405,59 L 405,61 L 405,63 L 405,64 L 406,64 L 406,66 L 406,68 L 406,70 L 407,70 L 407,72 L 407,73 L 408,73 L 408,75 L 408,76 L 409,76 L 409,78 L 409,79 L 410,79 L 410,80 L 411,80 L 411,82 L 412,82 L 412,84 L 413,84 L 413,85 L 414,85 L 414,87 L 415,87 L 415,88 L 416,88 L 416,89 L 417,89 L 417,90 L 418,90 L 418,91 L 419,91 L 419,92 L 420,92 L 420,93 L 421,93 L 421,94 L 422,94 L 422,95 L 424,95 L 424,96 L 425,96 L 425,97 L 427,97 L 427,98 L 429,98 L 429,99 L 431,99 L 431,100 L 433,100 L 433,101 L 435,101 L 437,101 L 437,102 L 439,102 L 441,102 L 442,102 L 442,103 L 444,103 L 446,103 L 448,103 L 450,103 L 452,103 L 454,103 L 455,103 L 455,102 L 457,102 L 459,102 L 460,102 L 460,101 L 462,101 L 464,101 L 464,100 L 466,100 L 467,100 L 467,99 L 469,99 L 469,98 L 471,98 L 471,97 L 473,97 L 473,96 L 474,96 L 474,95 L 475,95 L 475,94 L 477,94 L 477,93 L 478,93 L 478,92 L 479,92 L 479,91 L 480,91 L 480,90 L 481,90 L 481,89 L 482,89 L 482,88 L 483,88 L 483,86 L 484,86 L 484,85 L 485,85 L 485,84 L 486,84 L 486,82 L 487,82 L 487,80 L 488,80 L 488,78 L 489,78 L 489,76 L 490,76 L 490,74 L 490,73 L 491,73 L 491,71 L 491,69 L 492,69 L 492,67 L 492,65 L 492,63 L 492,62 L 493,62 L 493,60 L 493,58 L 493,56 L 493,54 L 492,54 L 492,52 L 492,50 L 492,48 L 492,47 L 491,47 L 491,45 L 491,43 L 490,43 L 490,41 L 489,41 L 489,39 L 488,39 L 488,37 L 487,37 L 487,35 L 486,35 L 486,33 L 485,33 L 485,32 L 484,32 L 484,30 L 483,30 L 483,29 L 482,29 L 482,28 L 481,28 L 481,27 L 480,27 L 480,26 L 479,26 L 479,25 L 478,25 L 478,24 L 477,24 L 477,23 L 476,23 L 476,22 L 475,22 L 475,21 L 473,21 L 473,20 L 472,20 L 472,19 L 470,19 L 470,18 L 468,18 L 468,17 L 466,17 L 466,16 L 464,16 L 464,15 L 462,15 L 460,15 L 460,14 L 458,14 L 456,14 L 454,14 L 454,13 L 452,13 L 450,13 L 448,13 L 446,13 L 444,13 Z" fill="#132f55"/>
  <path d="M 1010,41 L 1012,41 L 1014,41 L 1016,41 L 1018,41 L 1020,41 L 1022,41 L 1024,41 L 1024,42 L 1026,42 L 1027,42 L 1027,43 L 1029,43 L 1030,43 L 1030,44 L 1032,44 L 1032,45 L 1034,45 L 1034,46 L 1036,46 L 1036,47 L 1037,47 L 1037,48 L 1038,48 L 1038,49 L 1039,49 L 1039,50 L 1040,50 L 1040,51 L 1041,51 L 1041,52 L 1042,52 L 1042,50 L 1042,48 L 1042,46 L 1042,44 L 1042,43 L 1044,43 L 1046,43 L 1048,43 L 1050,43 L 1052,43 L 1054,43 L 1054,45 L 1054,47 L 1054,49 L 1054,51 L 1054,53 L 1054,55 L 1054,57 L 1054,59 L 1054,61 L 1054,63 L 1054,65 L 1054,67 L 1054,69 L 1054,71 L 1054,73 L 1054,75 L 1054,77 L 1054,79 L 1054,81 L 1054,83 L 1054,85 L 1054,87 L 1054,89 L 1054,91 L 1054,93 L 1054,95 L 1054,97 L 1054,99 L 1054,101 L 1054,103 L 1054,105 L 1054,107 L 1054,109 L 1054,111 L 1054,113 L 1054,115 L 1054,117 L 1054,119 L 1054,121 L 1054,123 L 1054,125 L 1053,125 L 1053,127 L 1053,129 L 1052,129 L 1052,131 L 1051,131 L 1051,133 L 1050,133 L 1050,135 L 1049,135 L 1049,137 L 1048,137 L 1048,138 L 1047,138 L 1047,139 L 1046,139 L 1046,140 L 1045,140 L 1045,141 L 1044,141 L 1044,142 L 1043,142 L 1043,143 L 1042,143 L 1042,144 L 1040,144 L 1040,145 L 1039,145 L 1039,146 L 1037,146 L 1036,146 L 1036,147 L 1034,147 L 1034,148 L 1032,148 L 1031,148 L 1031,149 L 1029,149 L 1027,149 L 1027,150 L 1025,150 L 1023,150 L 1021,150 L 1019,150 L 1017,150 L 1015,150 L 1013,150 L 1011,150 L 1011,149 L 1009,149 L 1007,149 L 1006,149 L 1006,148 L 1004,148 L 1004,147 L 1002,147 L 1001,147 L 1001,146 L 999,146 L 999,145 L 998,145 L 998,144 L 996,144 L 996,143 L 995,143 L 995,142 L 994,142 L 994,141 L 993,141 L 993,140 L 992,140 L 992,139 L 991,139 L 991,138 L 990,138 L 990,137 L 989,137 L 989,135 L 988,135 L 988,134 L 987,134 L 987,132 L 986,132 L 986,130 L 985,130 L 985,128 L 984,128 L 984,126 L 984,125 L 986,125 L 988,125 L 988,124 L 990,124 L 992,124 L 992,123 L 994,123 L 996,123 L 997,123 L 997,125 L 997,126 L 998,126 L 998,128 L 999,128 L 999,129 L 1000,129 L 1000,131 L 1001,131 L 1001,132 L 1002,132 L 1002,133 L 1003,133 L 1003,134 L 1005,134 L 1005,135 L 1006,135 L 1006,136 L 1008,136 L 1008,137 L 1010,137 L 1012,137 L 1012,138 L 1014,138 L 1016,138 L 1017,138 L 1017,139 L 1019,139 L 1020,139 L 1020,138 L 1022,138 L 1024,138 L 1026,138 L 1027,138 L 1027,137 L 1029,137 L 1029,136 L 1031,136 L 1032,136 L 1032,135 L 1033,135 L 1033,134 L 1034,134 L 1034,133 L 1036,133 L 1036,132 L 1037,132 L 1037,130 L 1038,130 L 1038,129 L 1039,129 L 1039,127 L 1040,127 L 1040,125 L 1041,125 L 1041,123 L 1041,121 L 1041,120 L 1042,120 L 1042,118 L 1042,116 L 1042,114 L 1042,112 L 1042,110 L 1042,108 L 1042,106 L 1042,104 L 1041,104 L 1041,105 L 1040,105 L 1040,106 L 1039,106 L 1039,107 L 1038,107 L 1038,108 L 1037,108 L 1037,109 L 1036,109 L 1036,110 L 1034,110 L 1034,111 L 1033,111 L 1033,112 L 1031,112 L 1031,113 L 1029,113 L 1029,114 L 1027,114 L 1025,114 L 1024,114 L 1024,115 L 1022,115 L 1020,115 L 1018,115 L 1016,115 L 1014,115 L 1012,115 L 1010,115 L 1010,114 L 1008,114 L 1006,114 L 1006,113 L 1004,113 L 1004,112 L 1002,112 L 1002,111 L 1000,111 L 1000,110 L 998,110 L 998,109 L 997,109 L 997,108 L 996,108 L 996,107 L 994,107 L 994,106 L 993,106 L 993,105 L 992,105 L 992,104 L 991,104 L 991,103 L 990,103 L 990,101 L 989,101 L 989,100 L 988,100 L 988,99 L 987,99 L 987,97 L 986,97 L 986,95 L 985,95 L 985,93 L 984,93 L 984,91 L 983,91 L 983,89 L 983,87 L 983,86 L 982,86 L 982,84 L 982,82 L 982,80 L 982,78 L 982,76 L 982,74 L 982,72 L 982,70 L 982,69 L 983,69 L 983,67 L 983,65 L 984,65 L 984,63 L 985,63 L 985,61 L 986,61 L 986,59 L 987,59 L 987,57 L 988,57 L 988,56 L 989,56 L 989,54 L 990,54 L 990,53 L 991,53 L 991,52 L 992,52 L 992,51 L 993,51 L 993,50 L 994,50 L 994,49 L 995,49 L 995,48 L 997,48 L 997,47 L 998,47 L 998,46 L 1000,46 L 1000,45 L 1001,45 L 1001,44 L 1003,44 L 1004,44 L 1004,43 L 1006,43 L 1006,42 L 1008,42 L 1010,42 L 1010,41 Z" fill="#132f55"/>
  <path d="M 135,2 L 137,2 L 139,2 L 141,2 L 143,2 L 145,2 L 147,2 L 149,2 L 151,2 L 153,2 L 155,2 L 157,2 L 159,2 L 161,2 L 163,2 L 165,2 L 167,2 L 169,2 L 171,2 L 173,2 L 175,2 L 177,2 L 179,2 L 181,2 L 181,3 L 183,3 L 185,3 L 186,3 L 186,4 L 188,4 L 189,4 L 189,5 L 191,5 L 191,6 L 193,6 L 193,7 L 195,7 L 195,8 L 196,8 L 196,9 L 198,9 L 198,10 L 199,10 L 199,11 L 200,11 L 200,12 L 201,12 L 201,13 L 202,13 L 202,14 L 203,14 L 203,15 L 204,15 L 204,17 L 205,17 L 205,18 L 206,18 L 206,20 L 207,20 L 207,22 L 208,22 L 208,24 L 209,24 L 209,26 L 209,27 L 210,27 L 210,29 L 210,31 L 211,31 L 211,33 L 211,35 L 211,37 L 211,39 L 211,41 L 211,43 L 210,43 L 210,45 L 210,47 L 209,47 L 209,49 L 209,50 L 208,50 L 208,52 L 208,53 L 207,53 L 207,55 L 206,55 L 206,56 L 205,56 L 205,58 L 204,58 L 204,59 L 203,59 L 203,60 L 202,60 L 202,62 L 201,62 L 201,63 L 200,63 L 200,64 L 198,64 L 198,65 L 197,65 L 197,66 L 196,66 L 196,67 L 194,67 L 194,68 L 193,68 L 193,69 L 191,69 L 190,69 L 190,70 L 188,70 L 188,71 L 186,71 L 184,71 L 184,72 L 182,72 L 180,72 L 178,72 L 178,73 L 176,73 L 174,73 L 172,73 L 170,73 L 168,73 L 166,73 L 164,73 L 162,73 L 160,73 L 158,73 L 156,73 L 154,73 L 152,73 L 150,73 L 150,75 L 150,77 L 150,79 L 150,81 L 150,83 L 150,85 L 150,87 L 150,89 L 150,91 L 150,93 L 150,95 L 150,97 L 150,99 L 150,101 L 150,103 L 150,104 L 151,104 L 151,105 L 150,105 L 150,106 L 151,106 L 151,108 L 151,109 L 150,109 L 150,110 L 151,110 L 151,112 L 151,113 L 150,113 L 150,114 L 148,114 L 146,114 L 144,114 L 142,114 L 140,114 L 138,114 L 136,114 L 136,113 L 135,113 L 135,111 L 135,109 L 135,107 L 135,105 L 135,103 L 135,101 L 135,99 L 135,97 L 135,95 L 135,93 L 135,91 L 135,89 L 135,87 L 135,85 L 135,83 L 135,81 L 135,79 L 135,77 L 135,75 L 135,73 L 135,71 L 135,69 L 135,67 L 135,65 L 135,63 L 135,61 L 135,59 L 135,57 L 135,55 L 135,53 L 135,51 L 135,49 L 135,47 L 135,45 L 135,43 L 135,41 L 135,39 L 135,37 L 135,35 L 135,33 L 135,31 L 135,29 L 135,27 L 135,25 L 135,23 L 135,21 L 135,19 L 135,17 L 135,15 L 135,13 L 135,11 L 135,9 L 135,7 L 135,5 L 135,3 L 135,2 Z" fill="#132f55"/>
  <path d="M 553,41 L 555,41 L 557,41 L 559,41 L 561,41 L 563,41 L 565,41 L 567,41 L 567,42 L 569,42 L 571,42 L 571,43 L 573,43 L 573,44 L 575,44 L 575,45 L 577,45 L 577,46 L 579,46 L 579,47 L 580,47 L 580,48 L 581,48 L 581,49 L 582,49 L 582,50 L 583,50 L 583,51 L 584,51 L 584,52 L 585,52 L 585,53 L 586,53 L 586,54 L 587,54 L 587,55 L 588,55 L 588,57 L 589,57 L 589,58 L 590,58 L 590,60 L 591,60 L 591,62 L 592,62 L 592,64 L 592,65 L 593,65 L 593,67 L 593,68 L 594,68 L 594,70 L 594,72 L 594,74 L 594,76 L 595,76 L 595,78 L 595,80 L 595,81 L 594,81 L 594,83 L 594,85 L 594,87 L 594,88 L 593,88 L 593,90 L 593,92 L 592,92 L 592,94 L 591,94 L 591,96 L 590,96 L 590,98 L 589,98 L 589,100 L 588,100 L 588,101 L 587,101 L 587,103 L 586,103 L 586,104 L 585,104 L 585,105 L 584,105 L 584,106 L 583,106 L 583,107 L 582,107 L 582,108 L 581,108 L 581,109 L 579,109 L 579,110 L 578,110 L 578,111 L 576,111 L 576,112 L 574,112 L 574,113 L 572,113 L 572,114 L 570,114 L 569,114 L 569,115 L 567,115 L 565,115 L 563,115 L 561,115 L 561,116 L 560,116 L 560,115 L 558,115 L 556,115 L 554,115 L 552,115 L 552,114 L 550,114 L 548,114 L 548,113 L 546,113 L 546,112 L 544,112 L 544,111 L 542,111 L 542,110 L 541,110 L 541,109 L 539,109 L 539,108 L 538,108 L 538,107 L 537,107 L 537,106 L 536,106 L 536,105 L 535,105 L 535,107 L 535,109 L 535,111 L 535,113 L 535,115 L 535,117 L 535,119 L 535,121 L 535,123 L 535,125 L 535,127 L 535,129 L 535,131 L 535,133 L 535,135 L 535,137 L 535,139 L 535,141 L 535,143 L 535,145 L 535,147 L 535,148 L 533,148 L 531,148 L 529,148 L 527,148 L 525,148 L 523,148 L 523,146 L 523,144 L 523,142 L 523,140 L 523,138 L 523,136 L 523,134 L 523,132 L 523,130 L 523,128 L 523,126 L 523,124 L 523,123 L 522,123 L 522,121 L 522,120 L 523,120 L 523,119 L 522,119 L 522,118 L 523,118 L 523,116 L 523,114 L 523,112 L 523,111 L 522,111 L 522,110 L 523,110 L 523,108 L 523,106 L 523,104 L 523,102 L 523,100 L 523,98 L 523,96 L 523,94 L 523,92 L 523,90 L 523,88 L 523,86 L 523,84 L 523,82 L 523,80 L 523,78 L 523,76 L 523,74 L 523,72 L 523,71 L 522,71 L 522,69 L 522,67 L 522,65 L 522,63 L 522,61 L 522,60 L 523,60 L 523,59 L 522,59 L 522,58 L 523,58 L 523,57 L 522,57 L 522,55 L 522,53 L 522,51 L 522,49 L 522,47 L 522,45 L 522,43 L 524,43 L 526,43 L 528,43 L 530,43 L 532,43 L 534,43 L 535,43 L 535,45 L 535,47 L 535,49 L 535,51 L 535,52 L 536,52 L 536,51 L 537,51 L 537,50 L 538,50 L 538,49 L 539,49 L 539,48 L 540,48 L 540,47 L 541,47 L 541,46 L 543,46 L 543,45 L 544,45 L 544,44 L 546,44 L 546,43 L 548,43 L 549,43 L 549,42 L 551,42 L 553,42 L 553,41 Z" fill="#132f55"/>
  <path d="M 1490,41 L 1492,41 L 1494,41 L 1496,41 L 1498,41 L 1500,41 L 1502,41 L 1504,41 L 1504,42 L 1506,42 L 1508,42 L 1508,43 L 1510,43 L 1510,44 L 1512,44 L 1512,45 L 1514,45 L 1514,46 L 1516,46 L 1516,47 L 1517,47 L 1517,48 L 1518,48 L 1518,49 L 1519,49 L 1519,50 L 1521,50 L 1521,52 L 1522,52 L 1522,53 L 1523,53 L 1523,54 L 1524,54 L 1524,55 L 1525,55 L 1525,57 L 1526,57 L 1526,58 L 1527,58 L 1527,60 L 1528,60 L 1528,62 L 1529,62 L 1529,64 L 1529,65 L 1530,65 L 1530,67 L 1530,68 L 1531,68 L 1531,70 L 1531,72 L 1531,74 L 1531,76 L 1531,78 L 1531,80 L 1531,82 L 1531,84 L 1531,86 L 1531,88 L 1530,88 L 1530,90 L 1530,92 L 1529,92 L 1529,94 L 1529,95 L 1528,95 L 1528,97 L 1527,97 L 1527,98 L 1526,98 L 1526,100 L 1525,100 L 1525,101 L 1524,101 L 1524,103 L 1523,103 L 1523,104 L 1522,104 L 1522,105 L 1521,105 L 1521,106 L 1520,106 L 1520,107 L 1519,107 L 1519,108 L 1518,108 L 1518,109 L 1516,109 L 1516,110 L 1515,110 L 1515,111 L 1513,111 L 1513,112 L 1511,112 L 1511,113 L 1510,113 L 1510,114 L 1508,114 L 1506,114 L 1506,115 L 1504,115 L 1502,115 L 1500,115 L 1499,115 L 1499,116 L 1497,116 L 1496,116 L 1496,115 L 1494,115 L 1492,115 L 1490,115 L 1488,115 L 1488,114 L 1486,114 L 1485,114 L 1485,113 L 1483,113 L 1483,112 L 1481,112 L 1481,111 L 1480,111 L 1480,110 L 1478,110 L 1478,109 L 1477,109 L 1477,108 L 1476,108 L 1476,107 L 1474,107 L 1474,106 L 1473,106 L 1473,105 L 1472,105 L 1472,107 L 1472,109 L 1472,111 L 1472,113 L 1472,115 L 1472,117 L 1472,119 L 1472,121 L 1472,123 L 1472,125 L 1472,127 L 1472,129 L 1472,131 L 1472,133 L 1472,135 L 1472,137 L 1472,139 L 1472,141 L 1472,143 L 1472,145 L 1472,147 L 1472,148 L 1470,148 L 1468,148 L 1466,148 L 1464,148 L 1462,148 L 1460,148 L 1460,147 L 1459,147 L 1459,146 L 1460,146 L 1460,145 L 1459,145 L 1459,144 L 1460,144 L 1460,142 L 1460,140 L 1460,138 L 1460,136 L 1460,134 L 1460,132 L 1460,130 L 1460,128 L 1460,126 L 1460,124 L 1460,122 L 1460,120 L 1460,118 L 1460,116 L 1460,114 L 1460,112 L 1460,110 L 1460,108 L 1460,106 L 1460,104 L 1460,102 L 1460,100 L 1460,98 L 1460,96 L 1460,94 L 1460,92 L 1460,90 L 1460,88 L 1460,86 L 1460,84 L 1460,82 L 1460,80 L 1460,78 L 1460,76 L 1460,74 L 1460,72 L 1460,70 L 1460,68 L 1460,66 L 1460,64 L 1460,62 L 1460,60 L 1460,58 L 1460,56 L 1460,54 L 1460,52 L 1460,50 L 1460,48 L 1460,46 L 1460,44 L 1460,43 L 1462,43 L 1464,43 L 1466,43 L 1468,43 L 1470,43 L 1471,43 L 1471,44 L 1472,44 L 1472,46 L 1472,48 L 1472,50 L 1472,52 L 1473,52 L 1473,51 L 1474,51 L 1474,50 L 1475,50 L 1475,49 L 1476,49 L 1476,48 L 1477,48 L 1477,47 L 1478,47 L 1478,46 L 1480,46 L 1480,45 L 1482,45 L 1482,44 L 1484,44 L 1484,43 L 1486,43 L 1486,42 L 1488,42 L 1490,42 L 1490,41 Z" fill="#132f55"/>
  <path d="M 250,16 L 249,16 L 249,18 L 249,20 L 249,22 L 249,24 L 249,26 L 249,28 L 249,30 L 249,32 L 249,34 L 249,36 L 249,38 L 249,40 L 249,42 L 249,44 L 249,46 L 249,48 L 249,50 L 249,52 L 249,54 L 249,56 L 249,58 L 249,60 L 249,62 L 249,64 L 249,66 L 249,68 L 249,70 L 249,72 L 249,74 L 249,76 L 249,78 L 249,80 L 249,82 L 249,84 L 249,86 L 249,88 L 249,90 L 249,92 L 249,94 L 249,96 L 249,98 L 249,100 L 251,100 L 253,100 L 255,100 L 257,100 L 259,100 L 261,100 L 263,100 L 265,100 L 267,100 L 269,100 L 271,100 L 273,100 L 275,100 L 277,100 L 279,100 L 280,100 L 280,99 L 282,99 L 284,99 L 284,98 L 286,98 L 288,98 L 288,97 L 290,97 L 290,96 L 292,96 L 292,95 L 294,95 L 294,94 L 296,94 L 296,93 L 297,93 L 297,92 L 299,92 L 299,91 L 300,91 L 300,90 L 301,90 L 301,89 L 302,89 L 302,88 L 303,88 L 303,87 L 304,87 L 304,86 L 305,86 L 305,85 L 306,85 L 306,83 L 307,83 L 307,82 L 308,82 L 308,80 L 309,80 L 309,78 L 310,78 L 310,76 L 311,76 L 311,74 L 312,74 L 312,72 L 312,70 L 313,70 L 313,68 L 313,66 L 314,66 L 314,64 L 314,62 L 314,60 L 314,58 L 314,56 L 314,54 L 314,52 L 314,50 L 314,49 L 313,49 L 313,47 L 313,45 L 312,45 L 312,43 L 312,42 L 311,42 L 311,40 L 311,39 L 310,39 L 310,37 L 309,37 L 309,36 L 308,36 L 308,34 L 307,34 L 307,33 L 306,33 L 306,31 L 305,31 L 305,30 L 304,30 L 304,29 L 303,29 L 303,28 L 302,28 L 302,27 L 301,27 L 301,26 L 300,26 L 300,25 L 299,25 L 299,24 L 298,24 L 298,23 L 296,23 L 296,22 L 295,22 L 295,21 L 293,21 L 293,20 L 291,20 L 291,19 L 289,19 L 288,19 L 288,18 L 286,18 L 285,18 L 285,17 L 283,17 L 281,17 L 281,16 L 279,16 L 277,16 L 275,16 L 273,16 L 271,16 L 269,16 L 267,16 L 265,16 L 263,16 L 261,16 L 259,16 L 257,16 L 255,16 L 253,16 L 251,16 L 250,16 Z" fill="#132f55"/>
  <path d="M 760,41 L 762,41 L 764,41 L 766,41 L 768,41 L 770,41 L 772,41 L 774,41 L 774,42 L 776,42 L 778,42 L 779,42 L 779,43 L 781,43 L 781,44 L 783,44 L 783,45 L 784,45 L 784,46 L 786,46 L 786,47 L 787,47 L 787,48 L 788,48 L 788,49 L 790,49 L 790,50 L 791,50 L 791,52 L 792,52 L 792,50 L 792,48 L 792,46 L 792,44 L 792,43 L 794,43 L 796,43 L 798,43 L 800,43 L 802,43 L 804,43 L 804,45 L 804,47 L 804,49 L 804,51 L 804,53 L 804,55 L 804,57 L 804,59 L 804,61 L 804,63 L 804,65 L 804,67 L 804,69 L 804,71 L 804,73 L 804,75 L 804,77 L 804,79 L 804,81 L 804,83 L 804,85 L 804,87 L 804,89 L 804,91 L 804,93 L 804,95 L 804,97 L 804,99 L 804,101 L 804,103 L 804,105 L 804,107 L 804,109 L 804,111 L 804,113 L 804,114 L 802,114 L 800,114 L 798,114 L 796,114 L 794,114 L 793,114 L 793,113 L 792,113 L 792,111 L 792,109 L 792,107 L 792,105 L 792,104 L 791,104 L 791,105 L 790,105 L 790,106 L 789,106 L 789,107 L 788,107 L 788,108 L 787,108 L 787,109 L 786,109 L 786,110 L 784,110 L 784,111 L 783,111 L 783,112 L 781,112 L 781,113 L 779,113 L 779,114 L 777,114 L 776,114 L 776,115 L 774,115 L 772,115 L 770,115 L 769,115 L 769,116 L 768,116 L 768,115 L 767,115 L 767,116 L 766,116 L 766,115 L 764,115 L 762,115 L 760,115 L 759,115 L 759,114 L 757,114 L 755,114 L 755,113 L 753,113 L 753,112 L 751,112 L 751,111 L 749,111 L 749,110 L 748,110 L 748,109 L 746,109 L 746,108 L 745,108 L 745,107 L 744,107 L 744,106 L 743,106 L 743,105 L 742,105 L 742,104 L 741,104 L 741,102 L 740,102 L 740,101 L 739,101 L 739,100 L 738,100 L 738,98 L 737,98 L 737,97 L 736,97 L 736,95 L 736,94 L 735,94 L 735,92 L 734,92 L 734,90 L 734,89 L 733,89 L 733,87 L 733,85 L 733,83 L 733,81 L 732,81 L 732,79 L 732,77 L 732,75 L 732,74 L 733,74 L 733,72 L 733,70 L 733,68 L 734,68 L 734,66 L 734,65 L 735,65 L 735,63 L 735,62 L 736,62 L 736,60 L 737,60 L 737,58 L 738,58 L 738,57 L 739,57 L 739,55 L 740,55 L 740,54 L 741,54 L 741,53 L 742,53 L 742,52 L 743,52 L 743,51 L 744,51 L 744,50 L 745,50 L 745,49 L 746,49 L 746,48 L 747,48 L 747,47 L 748,47 L 748,46 L 750,46 L 750,45 L 752,45 L 752,44 L 754,44 L 754,43 L 756,43 L 757,43 L 757,42 L 759,42 L 760,42 L 760,41 Z" fill="#132f55"/>
  <path d="M 1168,0 L 1170,0 L 1172,0 L 1174,0 L 1176,0 L 1178,0 L 1180,0 L 1180,1 L 1182,1 L 1184,1 L 1186,1 L 1186,2 L 1188,2 L 1190,2 L 1190,3 L 1192,3 L 1193,3 L 1193,4 L 1195,4 L 1196,4 L 1196,5 L 1198,5 L 1198,6 L 1200,6 L 1200,7 L 1202,7 L 1202,8 L 1204,8 L 1204,9 L 1205,9 L 1205,10 L 1207,10 L 1207,11 L 1208,11 L 1208,12 L 1209,12 L 1209,13 L 1210,13 L 1210,14 L 1212,14 L 1212,15 L 1213,15 L 1213,16 L 1214,16 L 1214,17 L 1215,17 L 1215,18 L 1216,18 L 1216,20 L 1217,20 L 1217,21 L 1218,21 L 1218,22 L 1219,22 L 1219,24 L 1220,24 L 1220,26 L 1221,26 L 1221,27 L 1222,27 L 1222,29 L 1223,29 L 1223,31 L 1224,31 L 1224,33 L 1224,35 L 1222,35 L 1220,35 L 1218,35 L 1216,35 L 1214,35 L 1213,35 L 1213,36 L 1211,36 L 1211,35 L 1210,35 L 1210,33 L 1209,33 L 1209,32 L 1208,32 L 1208,30 L 1207,30 L 1207,29 L 1206,29 L 1206,27 L 1205,27 L 1205,26 L 1204,26 L 1204,25 L 1203,25 L 1203,24 L 1202,24 L 1202,23 L 1201,23 L 1201,22 L 1199,22 L 1199,21 L 1198,21 L 1198,20 L 1197,20 L 1197,19 L 1195,19 L 1195,18 L 1193,18 L 1193,17 L 1191,17 L 1191,16 L 1189,16 L 1188,16 L 1188,15 L 1186,15 L 1184,15 L 1184,14 L 1182,14 L 1180,14 L 1179,14 L 1179,13 L 1177,13 L 1175,13 L 1173,13 L 1171,13 L 1169,13 L 1168,13 L 1168,14 L 1166,14 L 1164,14 L 1163,14 L 1163,15 L 1161,15 L 1159,15 L 1159,16 L 1157,16 L 1156,16 L 1156,17 L 1154,17 L 1153,17 L 1153,18 L 1151,18 L 1151,19 L 1150,19 L 1150,20 L 1148,20 L 1148,21 L 1147,21 L 1147,22 L 1146,22 L 1146,23 L 1145,23 L 1145,24 L 1144,24 L 1144,25 L 1143,25 L 1143,26 L 1142,26 L 1142,27 L 1141,27 L 1141,28 L 1140,28 L 1140,29 L 1139,29 L 1139,30 L 1138,30 L 1138,32 L 1137,32 L 1137,33 L 1136,33 L 1136,35 L 1135,35 L 1135,37 L 1134,37 L 1134,39 L 1134,40 L 1133,40 L 1133,42 L 1133,43 L 1132,43 L 1132,45 L 1132,46 L 1131,46 L 1131,48 L 1131,50 L 1131,51 L 1130,51 L 1130,53 L 1130,55 L 1130,57 L 1130,59 L 1130,61 L 1130,63 L 1130,65 L 1130,66 L 1131,66 L 1131,68 L 1131,70 L 1132,70 L 1132,72 L 1132,74 L 1133,74 L 1133,76 L 1134,76 L 1134,78 L 1134,79 L 1135,79 L 1135,81 L 1136,81 L 1136,83 L 1137,83 L 1137,84 L 1138,84 L 1138,86 L 1139,86 L 1139,87 L 1140,87 L 1140,88 L 1141,88 L 1141,90 L 1142,90 L 1142,91 L 1143,91 L 1143,92 L 1145,92 L 1145,93 L 1146,93 L 1146,94 L 1147,94 L 1147,95 L 1148,95 L 1148,96 L 1150,96 L 1150,97 L 1152,97 L 1152,98 L 1154,98 L 1154,99 L 1156,99 L 1156,100 L 1158,100 L 1158,101 L 1160,101 L 1162,101 L 1162,102 L 1164,102 L 1166,102 L 1168,102 L 1169,102 L 1169,103 L 1171,103 L 1173,103 L 1175,103 L 1177,103 L 1179,103 L 1180,103 L 1180,102 L 1182,102 L 1184,102 L 1186,102 L 1186,101 L 1188,101 L 1189,101 L 1189,100 L 1191,100 L 1192,100 L 1192,99 L 1194,99 L 1194,98 L 1196,98 L 1196,97 L 1198,97 L 1198,96 L 1199,96 L 1199,95 L 1200,95 L 1200,94 L 1202,94 L 1202,93 L 1203,93 L 1203,92 L 1204,92 L 1204,91 L 1205,91 L 1205,90 L 1206,90 L 1206,89 L 1207,89 L 1207,88 L 1208,88 L 1208,86 L 1209,86 L 1209,85 L 1210,85 L 1210,83 L 1211,83 L 1211,81 L 1212,81 L 1212,80 L 1213,80 L 1213,78 L 1213,77 L 1214,77 L 1214,75 L 1214,74 L 1215,74 L 1215,72 L 1215,70 L 1213,70 L 1211,70 L 1209,70 L 1207,70 L 1205,70 L 1203,70 L 1201,70 L 1199,70 L 1197,70 L 1195,70 L 1193,70 L 1191,70 L 1189,70 L 1187,70 L 1185,70 L 1183,70 L 1181,70 L 1179,70 L 1178,70 L 1178,68 L 1178,66 L 1178,64 L 1178,62 L 1178,60 L 1178,58 L 1180,58 L 1182,58 L 1184,58 L 1186,58 L 1188,58 L 1190,58 L 1192,58 L 1194,58 L 1196,58 L 1198,58 L 1200,58 L 1202,58 L 1204,58 L 1206,58 L 1208,58 L 1210,58 L 1212,58 L 1214,58 L 1216,58 L 1218,58 L 1220,58 L 1222,58 L 1224,58 L 1226,58 L 1228,58 L 1230,58 L 1230,59 L 1231,59 L 1231,61 L 1231,62 L 1230,62 L 1230,64 L 1230,66 L 1230,68 L 1230,70 L 1230,71 L 1229,71 L 1229,73 L 1229,75 L 1229,76 L 1228,76 L 1228,78 L 1228,79 L 1227,79 L 1227,81 L 1226,81 L 1226,83 L 1226,84 L 1225,84 L 1225,86 L 1224,86 L 1224,88 L 1223,88 L 1223,89 L 1222,89 L 1222,91 L 1221,91 L 1221,93 L 1220,93 L 1220,94 L 1219,94 L 1219,95 L 1218,95 L 1218,97 L 1217,97 L 1217,98 L 1216,98 L 1216,99 L 1215,99 L 1215,100 L 1214,100 L 1214,101 L 1213,101 L 1213,102 L 1212,102 L 1212,103 L 1210,103 L 1210,104 L 1209,104 L 1209,105 L 1208,105 L 1208,106 L 1207,106 L 1207,107 L 1205,107 L 1205,108 L 1203,108 L 1203,109 L 1201,109 L 1201,110 L 1199,110 L 1199,111 L 1197,111 L 1197,112 L 1195,112 L 1195,113 L 1193,113 L 1191,113 L 1191,114 L 1189,114 L 1188,114 L 1188,115 L 1186,115 L 1184,115 L 1182,115 L 1181,115 L 1181,116 L 1179,116 L 1177,116 L 1175,116 L 1173,116 L 1171,116 L 1169,116 L 1167,116 L 1166,116 L 1166,115 L 1164,115 L 1162,115 L 1160,115 L 1160,114 L 1158,114 L 1156,114 L 1156,113 L 1154,113 L 1153,113 L 1153,112 L 1151,112 L 1150,112 L 1150,111 L 1148,111 L 1148,110 L 1146,110 L 1146,109 L 1144,109 L 1144,108 L 1143,108 L 1143,107 L 1141,107 L 1141,106 L 1140,106 L 1140,105 L 1138,105 L 1138,104 L 1137,104 L 1137,103 L 1136,103 L 1136,102 L 1135,102 L 1135,101 L 1134,101 L 1134,100 L 1133,100 L 1133,99 L 1132,99 L 1132,98 L 1131,98 L 1131,97 L 1130,97 L 1130,96 L 1129,96 L 1129,95 L 1128,95 L 1128,94 L 1127,94 L 1127,92 L 1126,92 L 1126,91 L 1125,91 L 1125,89 L 1124,89 L 1124,87 L 1123,87 L 1123,86 L 1122,86 L 1122,84 L 1122,83 L 1121,83 L 1121,82 L 1120,82 L 1120,80 L 1120,79 L 1119,79 L 1119,77 L 1119,76 L 1118,76 L 1118,74 L 1118,72 L 1117,72 L 1117,70 L 1117,68 L 1117,66 L 1116,66 L 1116,64 L 1116,62 L 1116,60 L 1116,58 L 1116,56 L 1116,54 L 1116,52 L 1116,50 L 1117,50 L 1117,48 L 1117,46 L 1117,44 L 1118,44 L 1118,42 L 1118,40 L 1119,40 L 1119,38 L 1119,37 L 1120,37 L 1120,35 L 1120,34 L 1121,34 L 1121,32 L 1122,32 L 1122,30 L 1123,30 L 1123,28 L 1124,28 L 1124,27 L 1125,27 L 1125,25 L 1126,25 L 1126,24 L 1127,24 L 1127,22 L 1128,22 L 1128,21 L 1129,21 L 1129,20 L 1130,20 L 1130,19 L 1131,19 L 1131,18 L 1132,18 L 1132,17 L 1133,17 L 1133,16 L 1134,16 L 1134,15 L 1135,15 L 1135,14 L 1136,14 L 1136,13 L 1137,13 L 1137,12 L 1139,12 L 1139,11 L 1140,11 L 1140,10 L 1142,10 L 1142,9 L 1143,9 L 1143,8 L 1145,8 L 1145,7 L 1146,7 L 1146,6 L 1148,6 L 1149,6 L 1149,5 L 1151,5 L 1151,4 L 1153,4 L 1154,4 L 1154,3 L 1156,3 L 1157,3 L 1157,2 L 1159,2 L 1161,2 L 1162,2 L 1162,1 L 1164,1 L 1166,1 L 1168,1 L 1168,0 Z" fill="#132f55"/>
  <path d="M 1321,41 L 1323,41 L 1325,41 L 1327,41 L 1329,41 L 1331,41 L 1333,41 L 1335,41 L 1336,41 L 1336,42 L 1338,42 L 1339,42 L 1339,43 L 1341,43 L 1343,43 L 1343,44 L 1345,44 L 1345,45 L 1346,45 L 1346,46 L 1348,46 L 1348,47 L 1349,47 L 1349,48 L 1351,48 L 1351,49 L 1352,49 L 1352,50 L 1353,50 L 1353,51 L 1354,51 L 1354,52 L 1355,52 L 1355,53 L 1356,53 L 1356,54 L 1357,54 L 1357,56 L 1358,56 L 1358,57 L 1359,57 L 1359,59 L 1360,59 L 1360,61 L 1361,61 L 1361,63 L 1362,63 L 1362,65 L 1363,65 L 1363,67 L 1363,69 L 1364,69 L 1364,71 L 1364,73 L 1364,75 L 1364,77 L 1364,79 L 1364,81 L 1364,83 L 1364,85 L 1364,87 L 1364,88 L 1363,88 L 1363,90 L 1363,91 L 1362,91 L 1362,93 L 1362,94 L 1361,94 L 1361,96 L 1360,96 L 1360,98 L 1359,98 L 1359,100 L 1358,100 L 1358,101 L 1357,101 L 1357,102 L 1356,102 L 1356,104 L 1355,104 L 1355,105 L 1354,105 L 1354,106 L 1353,106 L 1353,107 L 1351,107 L 1351,108 L 1350,108 L 1350,109 L 1349,109 L 1349,110 L 1347,110 L 1347,111 L 1345,111 L 1345,112 L 1343,112 L 1343,113 L 1341,113 L 1341,114 L 1339,114 L 1337,114 L 1337,115 L 1335,115 L 1333,115 L 1331,115 L 1331,116 L 1329,116 L 1327,116 L 1326,116 L 1326,115 L 1324,115 L 1322,115 L 1320,115 L 1319,115 L 1319,114 L 1317,114 L 1316,114 L 1316,113 L 1314,113 L 1313,113 L 1313,112 L 1311,112 L 1311,111 L 1309,111 L 1309,110 L 1308,110 L 1308,109 L 1306,109 L 1306,108 L 1305,108 L 1305,107 L 1304,107 L 1304,106 L 1303,106 L 1303,105 L 1302,105 L 1302,104 L 1301,104 L 1301,103 L 1300,103 L 1300,102 L 1299,102 L 1299,100 L 1298,100 L 1298,99 L 1297,99 L 1297,97 L 1296,97 L 1296,95 L 1295,95 L 1295,93 L 1294,93 L 1294,91 L 1294,90 L 1293,90 L 1293,88 L 1293,87 L 1292,87 L 1292,85 L 1292,83 L 1292,81 L 1292,79 L 1292,77 L 1292,75 L 1292,73 L 1292,71 L 1292,69 L 1293,69 L 1293,67 L 1293,65 L 1294,65 L 1294,63 L 1295,63 L 1295,61 L 1296,61 L 1296,59 L 1297,59 L 1297,57 L 1298,57 L 1298,56 L 1299,56 L 1299,54 L 1300,54 L 1300,53 L 1301,53 L 1301,52 L 1302,52 L 1302,51 L 1303,51 L 1303,50 L 1304,50 L 1304,49 L 1305,49 L 1305,48 L 1307,48 L 1307,47 L 1308,47 L 1308,46 L 1310,46 L 1310,45 L 1312,45 L 1312,44 L 1314,44 L 1314,43 L 1316,43 L 1317,43 L 1317,42 L 1319,42 L 1321,42 L 1321,41 Z" fill="#132f55"/>
  <path d="M 51,0 L 53,0 L 55,0 L 57,0 L 59,0 L 61,0 L 63,0 L 65,0 L 67,0 L 67,1 L 69,1 L 71,1 L 73,1 L 73,2 L 75,2 L 77,2 L 77,3 L 79,3 L 80,3 L 80,4 L 82,4 L 82,5 L 84,5 L 85,5 L 85,6 L 87,6 L 87,7 L 89,7 L 89,8 L 90,8 L 90,9 L 92,9 L 92,10 L 93,10 L 93,11 L 94,11 L 94,12 L 96,12 L 96,13 L 97,13 L 97,14 L 98,14 L 98,15 L 99,15 L 99,16 L 100,16 L 100,17 L 101,17 L 101,18 L 102,18 L 102,19 L 103,19 L 103,21 L 104,21 L 104,22 L 105,22 L 105,23 L 106,23 L 106,25 L 107,25 L 107,26 L 108,26 L 108,28 L 109,28 L 109,30 L 110,30 L 110,32 L 111,32 L 111,34 L 111,36 L 111,37 L 109,37 L 107,37 L 105,37 L 103,37 L 101,37 L 99,37 L 97,37 L 95,37 L 95,35 L 94,35 L 94,33 L 93,33 L 93,31 L 92,31 L 92,30 L 91,30 L 91,28 L 90,28 L 90,27 L 89,27 L 89,26 L 88,26 L 88,25 L 87,25 L 87,24 L 86,24 L 86,23 L 85,23 L 85,22 L 84,22 L 84,21 L 82,21 L 82,20 L 81,20 L 81,19 L 79,19 L 79,18 L 77,18 L 77,17 L 75,17 L 75,16 L 73,16 L 72,16 L 72,15 L 70,15 L 68,15 L 67,15 L 67,14 L 65,14 L 63,14 L 61,14 L 59,14 L 57,14 L 55,14 L 53,14 L 51,14 L 50,14 L 50,15 L 48,15 L 46,15 L 46,16 L 44,16 L 43,16 L 43,17 L 41,17 L 40,17 L 40,18 L 38,18 L 38,19 L 37,19 L 37,20 L 35,20 L 35,21 L 33,21 L 33,22 L 32,22 L 32,23 L 31,23 L 31,24 L 30,24 L 30,25 L 29,25 L 29,26 L 28,26 L 28,27 L 27,27 L 27,28 L 26,28 L 26,29 L 25,29 L 25,30 L 24,30 L 24,32 L 23,32 L 23,33 L 22,33 L 22,35 L 21,35 L 21,37 L 20,37 L 20,39 L 19,39 L 19,41 L 19,42 L 18,42 L 18,44 L 18,46 L 17,46 L 17,48 L 17,50 L 17,52 L 16,52 L 16,54 L 16,56 L 16,58 L 16,60 L 16,62 L 16,64 L 17,64 L 17,66 L 17,68 L 17,70 L 18,70 L 18,72 L 18,74 L 19,74 L 19,76 L 20,76 L 20,78 L 21,78 L 21,80 L 22,80 L 22,82 L 23,82 L 23,84 L 24,84 L 24,85 L 25,85 L 25,86 L 26,86 L 26,87 L 27,87 L 27,89 L 28,89 L 28,90 L 29,90 L 29,91 L 30,91 L 30,92 L 31,92 L 31,93 L 33,93 L 33,94 L 34,94 L 34,95 L 35,95 L 35,96 L 37,96 L 37,97 L 39,97 L 39,98 L 41,98 L 41,99 L 43,99 L 44,99 L 44,100 L 46,100 L 47,100 L 47,101 L 49,101 L 51,101 L 52,101 L 52,102 L 54,102 L 56,102 L 58,102 L 60,102 L 62,102 L 64,102 L 64,101 L 66,101 L 68,101 L 70,101 L 71,101 L 71,100 L 73,100 L 74,100 L 74,99 L 76,99 L 76,98 L 78,98 L 78,97 L 80,97 L 80,96 L 82,96 L 82,95 L 83,95 L 83,94 L 85,94 L 85,93 L 86,93 L 86,92 L 87,92 L 87,91 L 88,91 L 88,90 L 89,90 L 89,89 L 90,89 L 90,88 L 91,88 L 91,87 L 92,87 L 92,85 L 93,85 L 93,84 L 94,84 L 94,82 L 95,82 L 95,80 L 96,80 L 96,78 L 98,78 L 100,78 L 102,78 L 104,78 L 106,78 L 108,78 L 110,78 L 111,78 L 111,79 L 112,79 L 112,80 L 111,80 L 111,82 L 111,83 L 110,83 L 110,85 L 109,85 L 109,87 L 108,87 L 108,89 L 107,89 L 107,91 L 106,91 L 106,93 L 105,93 L 105,94 L 104,94 L 104,95 L 103,95 L 103,96 L 102,96 L 102,98 L 101,98 L 101,99 L 100,99 L 100,100 L 99,100 L 99,101 L 98,101 L 98,102 L 97,102 L 97,103 L 95,103 L 95,104 L 94,104 L 94,105 L 93,105 L 93,106 L 91,106 L 91,107 L 90,107 L 90,108 L 88,108 L 88,109 L 87,109 L 87,110 L 85,110 L 85,111 L 83,111 L 82,111 L 82,112 L 80,112 L 80,113 L 78,113 L 77,113 L 77,114 L 75,114 L 73,114 L 73,115 L 71,115 L 69,115 L 67,115 L 67,116 L 65,116 L 63,116 L 61,116 L 59,116 L 57,116 L 55,116 L 53,116 L 51,116 L 51,115 L 49,115 L 47,115 L 45,115 L 44,115 L 44,114 L 42,114 L 41,114 L 41,113 L 39,113 L 38,113 L 38,112 L 36,112 L 35,112 L 35,111 L 33,111 L 33,110 L 31,110 L 31,109 L 29,109 L 29,108 L 27,108 L 27,107 L 26,107 L 26,106 L 25,106 L 25,105 L 23,105 L 23,104 L 22,104 L 22,103 L 21,103 L 21,102 L 20,102 L 20,101 L 18,101 L 18,99 L 16,99 L 16,97 L 15,97 L 15,96 L 14,96 L 14,95 L 13,95 L 13,94 L 12,94 L 12,93 L 11,93 L 11,91 L 10,91 L 10,90 L 9,90 L 9,88 L 8,88 L 8,86 L 7,86 L 7,84 L 6,84 L 6,82 L 5,82 L 5,80 L 5,79 L 4,79 L 4,77 L 3,77 L 3,75 L 3,73 L 2,73 L 2,71 L 2,69 L 1,69 L 1,67 L 1,65 L 1,63 L 0,63 L 0,61 L 0,59 L 0,57 L 0,55 L 0,54 L 1,54 L 1,52 L 1,50 L 1,48 L 1,47 L 2,47 L 2,45 L 2,43 L 2,42 L 3,42 L 3,40 L 3,38 L 4,38 L 4,36 L 5,36 L 5,34 L 5,33 L 6,33 L 6,31 L 7,31 L 7,29 L 8,29 L 8,28 L 9,28 L 9,26 L 10,26 L 10,25 L 11,25 L 11,23 L 12,23 L 12,22 L 13,22 L 13,20 L 14,20 L 14,19 L 15,19 L 15,18 L 16,18 L 16,17 L 17,17 L 17,16 L 18,16 L 18,15 L 19,15 L 19,14 L 20,14 L 20,13 L 22,13 L 22,12 L 23,12 L 23,11 L 24,11 L 24,10 L 26,10 L 26,9 L 27,9 L 27,8 L 29,8 L 29,7 L 31,7 L 31,6 L 33,6 L 33,5 L 35,5 L 35,4 L 37,4 L 38,4 L 38,3 L 40,3 L 41,3 L 41,2 L 43,2 L 44,2 L 44,1 L 46,1 L 48,1 L 50,1 L 51,1 L 51,0 Z" fill="#132f55"/>
  <path d="M 633,41 L 635,41 L 637,41 L 639,41 L 641,41 L 643,41 L 645,41 L 647,41 L 648,41 L 648,42 L 650,42 L 652,42 L 652,43 L 654,43 L 654,44 L 656,44 L 656,45 L 658,45 L 658,46 L 660,46 L 660,47 L 661,47 L 661,48 L 662,48 L 662,49 L 663,49 L 663,50 L 664,50 L 664,51 L 665,51 L 665,52 L 666,52 L 666,53 L 667,53 L 667,54 L 668,54 L 668,56 L 669,56 L 669,57 L 670,57 L 670,59 L 670,60 L 671,60 L 671,62 L 672,62 L 672,64 L 672,65 L 673,65 L 673,67 L 673,68 L 674,68 L 674,70 L 674,72 L 674,74 L 674,76 L 674,78 L 674,80 L 674,82 L 672,82 L 670,82 L 668,82 L 666,82 L 664,82 L 662,82 L 660,82 L 658,82 L 656,82 L 654,82 L 652,82 L 650,82 L 648,82 L 646,82 L 644,82 L 642,82 L 640,82 L 638,82 L 636,82 L 634,82 L 632,82 L 630,82 L 628,82 L 626,82 L 624,82 L 622,82 L 620,82 L 618,82 L 618,84 L 618,85 L 619,85 L 619,87 L 619,89 L 620,89 L 620,91 L 620,92 L 621,92 L 621,93 L 622,93 L 622,95 L 623,95 L 623,96 L 624,96 L 624,97 L 625,97 L 625,99 L 627,99 L 627,100 L 628,100 L 628,101 L 630,101 L 630,102 L 632,102 L 632,103 L 634,103 L 635,103 L 635,104 L 637,104 L 639,104 L 641,104 L 643,104 L 645,104 L 646,104 L 646,103 L 648,103 L 649,103 L 649,102 L 651,102 L 651,101 L 653,101 L 653,100 L 654,100 L 654,99 L 655,99 L 655,98 L 656,98 L 656,97 L 657,97 L 657,96 L 658,96 L 658,95 L 659,95 L 659,93 L 661,93 L 663,93 L 665,93 L 667,93 L 669,93 L 670,93 L 670,94 L 672,94 L 672,96 L 671,96 L 671,98 L 670,98 L 670,100 L 669,100 L 669,101 L 668,101 L 668,103 L 667,103 L 667,104 L 666,104 L 666,105 L 665,105 L 665,106 L 664,106 L 664,107 L 663,107 L 663,108 L 662,108 L 662,109 L 661,109 L 661,110 L 659,110 L 659,111 L 657,111 L 657,112 L 655,112 L 655,113 L 653,113 L 653,114 L 651,114 L 649,114 L 649,115 L 647,115 L 645,115 L 643,115 L 643,116 L 641,116 L 639,116 L 638,116 L 638,115 L 636,115 L 634,115 L 632,115 L 632,114 L 630,114 L 628,114 L 628,113 L 626,113 L 626,112 L 624,112 L 624,111 L 622,111 L 622,110 L 620,110 L 620,109 L 619,109 L 619,108 L 618,108 L 618,107 L 617,107 L 617,106 L 616,106 L 616,105 L 615,105 L 615,104 L 614,104 L 614,103 L 613,103 L 613,102 L 612,102 L 612,100 L 611,100 L 611,98 L 610,98 L 610,97 L 609,97 L 609,95 L 609,94 L 608,94 L 608,92 L 607,92 L 607,90 L 607,89 L 606,89 L 606,87 L 606,85 L 606,84 L 605,84 L 605,82 L 605,80 L 605,78 L 605,76 L 605,74 L 605,72 L 605,71 L 606,71 L 606,69 L 606,67 L 607,67 L 607,65 L 607,63 L 608,63 L 608,61 L 609,61 L 609,59 L 610,59 L 610,58 L 611,58 L 611,56 L 612,56 L 612,55 L 613,55 L 613,53 L 614,53 L 614,52 L 615,52 L 615,51 L 616,51 L 616,50 L 617,50 L 617,49 L 618,49 L 618,48 L 620,48 L 620,47 L 621,47 L 621,46 L 622,46 L 622,45 L 624,45 L 624,44 L 626,44 L 626,43 L 628,43 L 629,43 L 629,42 L 631,42 L 633,42 L 633,41 Z" fill="#132f55"/>
  <path d="M 24,168 L 26,168 L 28,168 L 30,168 L 32,168 L 33,168 L 33,169 L 35,169 L 37,169 L 37,170 L 39,170 L 40,170 L 40,171 L 42,171 L 42,172 L 44,172 L 44,173 L 45,173 L 45,174 L 46,174 L 46,175 L 48,175 L 48,177 L 49,177 L 49,178 L 50,178 L 50,179 L 51,179 L 51,181 L 52,181 L 52,183 L 53,183 L 53,185 L 54,185 L 54,187 L 54,188 L 55,188 L 55,190 L 55,192 L 55,194 L 55,196 L 55,198 L 55,200 L 55,201 L 54,201 L 54,203 L 54,205 L 53,205 L 53,207 L 52,207 L 52,209 L 51,209 L 51,210 L 50,210 L 50,211 L 49,211 L 49,213 L 48,213 L 48,214 L 47,214 L 47,215 L 46,215 L 46,216 L 44,216 L 44,217 L 43,217 L 43,218 L 41,218 L 41,219 L 39,219 L 39,220 L 37,220 L 36,220 L 36,221 L 34,221 L 32,221 L 30,221 L 28,221 L 26,221 L 24,221 L 22,221 L 22,220 L 20,220 L 18,220 L 18,219 L 16,219 L 16,218 L 14,218 L 14,217 L 13,217 L 13,216 L 12,216 L 12,215 L 10,215 L 10,214 L 9,214 L 9,213 L 8,213 L 8,211 L 7,211 L 7,210 L 6,210 L 6,209 L 5,209 L 5,207 L 4,207 L 4,205 L 4,204 L 3,204 L 3,202 L 3,200 L 2,200 L 2,198 L 2,196 L 2,194 L 2,192 L 2,190 L 2,189 L 3,189 L 3,187 L 3,186 L 4,186 L 4,184 L 4,183 L 5,183 L 5,181 L 6,181 L 6,180 L 7,180 L 7,179 L 8,179 L 8,177 L 9,177 L 9,176 L 10,176 L 10,175 L 11,175 L 11,174 L 12,174 L 12,173 L 14,173 L 14,172 L 15,172 L 15,171 L 17,171 L 17,170 L 19,170 L 20,170 L 20,169 L 22,169 L 24,169 L 24,168 Z" fill="#132f55"/>
  <path d="M 1378,43 L 1380,43 L 1382,43 L 1384,43 L 1386,43 L 1388,43 L 1390,43 L 1391,43 L 1391,45 L 1391,47 L 1391,49 L 1391,51 L 1391,53 L 1391,55 L 1391,57 L 1391,59 L 1391,61 L 1391,63 L 1391,65 L 1391,67 L 1391,69 L 1391,71 L 1391,73 L 1391,75 L 1391,77 L 1391,79 L 1391,81 L 1391,83 L 1391,85 L 1391,87 L 1391,89 L 1391,90 L 1392,90 L 1392,92 L 1392,93 L 1393,93 L 1393,95 L 1393,96 L 1394,96 L 1394,97 L 1395,97 L 1395,99 L 1396,99 L 1396,100 L 1397,100 L 1397,101 L 1399,101 L 1399,102 L 1401,102 L 1401,103 L 1403,103 L 1404,103 L 1404,104 L 1406,104 L 1408,104 L 1410,104 L 1411,104 L 1411,103 L 1413,103 L 1415,103 L 1415,102 L 1417,102 L 1417,101 L 1419,101 L 1419,100 L 1420,100 L 1420,99 L 1421,99 L 1421,98 L 1422,98 L 1422,96 L 1423,96 L 1423,95 L 1424,95 L 1424,93 L 1424,92 L 1425,92 L 1425,90 L 1425,89 L 1426,89 L 1426,87 L 1426,85 L 1426,83 L 1426,81 L 1426,79 L 1426,77 L 1426,75 L 1426,73 L 1426,71 L 1426,69 L 1426,67 L 1426,65 L 1426,63 L 1426,61 L 1426,59 L 1426,57 L 1427,57 L 1427,55 L 1427,53 L 1427,51 L 1426,51 L 1426,49 L 1426,47 L 1426,45 L 1426,43 L 1428,43 L 1430,43 L 1432,43 L 1434,43 L 1436,43 L 1438,43 L 1439,43 L 1439,45 L 1439,47 L 1439,49 L 1439,51 L 1439,53 L 1439,55 L 1439,57 L 1439,59 L 1439,61 L 1439,63 L 1439,65 L 1439,67 L 1439,69 L 1439,71 L 1439,73 L 1439,75 L 1439,77 L 1439,79 L 1439,81 L 1439,83 L 1439,85 L 1439,87 L 1439,89 L 1439,91 L 1439,93 L 1439,95 L 1439,97 L 1439,99 L 1439,101 L 1439,103 L 1439,105 L 1439,107 L 1439,109 L 1439,111 L 1439,113 L 1438,113 L 1438,114 L 1436,114 L 1434,114 L 1432,114 L 1430,114 L 1428,114 L 1428,113 L 1427,113 L 1427,111 L 1427,109 L 1427,107 L 1427,105 L 1426,105 L 1426,106 L 1425,106 L 1425,107 L 1424,107 L 1424,108 L 1423,108 L 1423,109 L 1422,109 L 1422,110 L 1421,110 L 1421,111 L 1419,111 L 1419,112 L 1418,112 L 1418,113 L 1416,113 L 1415,113 L 1415,114 L 1413,114 L 1413,115 L 1411,115 L 1409,115 L 1407,115 L 1405,115 L 1403,115 L 1401,115 L 1399,115 L 1398,115 L 1398,114 L 1396,114 L 1394,114 L 1394,113 L 1393,113 L 1393,112 L 1391,112 L 1391,111 L 1389,111 L 1389,110 L 1388,110 L 1388,109 L 1387,109 L 1387,108 L 1386,108 L 1386,107 L 1385,107 L 1385,106 L 1384,106 L 1384,104 L 1383,104 L 1383,103 L 1382,103 L 1382,101 L 1381,101 L 1381,99 L 1381,97 L 1380,97 L 1380,95 L 1380,93 L 1379,93 L 1379,91 L 1379,89 L 1379,87 L 1379,85 L 1379,83 L 1379,81 L 1379,79 L 1379,77 L 1379,75 L 1379,73 L 1379,71 L 1379,69 L 1379,67 L 1379,65 L 1379,63 L 1379,61 L 1379,59 L 1379,57 L 1379,55 L 1379,53 L 1379,51 L 1378,51 L 1378,49 L 1378,47 L 1378,45 L 1378,43 Z" fill="#132f55"/>
  <path d="M 935,41 L 937,41 L 939,41 L 941,41 L 943,41 L 945,41 L 947,41 L 948,41 L 948,42 L 950,42 L 951,42 L 951,43 L 953,43 L 954,43 L 954,44 L 955,44 L 955,45 L 957,45 L 957,46 L 958,46 L 958,47 L 959,47 L 959,48 L 960,48 L 960,49 L 961,49 L 961,50 L 962,50 L 962,51 L 963,51 L 963,53 L 964,53 L 964,55 L 965,55 L 965,57 L 965,58 L 966,58 L 966,60 L 966,61 L 967,61 L 967,63 L 967,65 L 967,67 L 967,69 L 967,71 L 967,73 L 967,75 L 967,77 L 967,79 L 967,81 L 967,83 L 967,85 L 967,87 L 967,89 L 967,91 L 967,93 L 967,95 L 967,97 L 967,99 L 967,101 L 967,103 L 967,105 L 967,107 L 967,109 L 967,111 L 967,113 L 967,114 L 965,114 L 963,114 L 961,114 L 959,114 L 957,114 L 955,114 L 955,112 L 955,110 L 955,108 L 955,106 L 955,104 L 955,102 L 955,100 L 955,98 L 955,96 L 955,94 L 955,92 L 955,90 L 955,88 L 955,86 L 955,84 L 955,82 L 955,80 L 955,78 L 955,76 L 955,74 L 955,72 L 955,70 L 955,68 L 955,67 L 954,67 L 954,65 L 954,63 L 953,63 L 953,61 L 952,61 L 952,59 L 951,59 L 951,57 L 950,57 L 950,56 L 949,56 L 949,55 L 947,55 L 947,54 L 945,54 L 945,53 L 943,53 L 941,53 L 940,53 L 940,52 L 938,52 L 937,52 L 937,53 L 935,53 L 933,53 L 931,53 L 931,54 L 929,54 L 929,55 L 927,55 L 927,56 L 926,56 L 926,57 L 925,57 L 925,58 L 924,58 L 924,59 L 923,59 L 923,61 L 922,61 L 922,63 L 921,63 L 921,65 L 920,65 L 920,67 L 920,69 L 920,71 L 919,71 L 919,73 L 919,75 L 919,77 L 919,79 L 919,81 L 919,83 L 919,85 L 919,87 L 919,89 L 919,91 L 919,93 L 919,95 L 919,97 L 919,99 L 919,101 L 919,103 L 919,105 L 919,107 L 919,109 L 919,111 L 919,113 L 919,114 L 917,114 L 915,114 L 913,114 L 911,114 L 909,114 L 907,114 L 907,112 L 907,110 L 907,108 L 907,106 L 907,104 L 907,102 L 907,100 L 907,98 L 907,96 L 907,94 L 907,92 L 907,90 L 907,88 L 907,86 L 907,84 L 907,82 L 907,80 L 907,78 L 907,76 L 907,74 L 907,72 L 907,70 L 907,68 L 907,66 L 907,64 L 907,62 L 907,60 L 907,58 L 907,56 L 907,54 L 907,52 L 907,50 L 907,48 L 907,46 L 907,44 L 906,44 L 906,43 L 908,43 L 910,43 L 912,43 L 914,43 L 916,43 L 918,43 L 919,43 L 919,45 L 919,47 L 919,49 L 919,51 L 920,51 L 920,50 L 921,50 L 921,49 L 922,49 L 922,48 L 923,48 L 923,47 L 924,47 L 924,46 L 925,46 L 925,45 L 927,45 L 927,44 L 928,44 L 928,43 L 930,43 L 931,43 L 931,42 L 933,42 L 935,42 L 935,41 Z" fill="#132f55"/>
  <path d="M 1327,52 L 1326,52 L 1326,53 L 1324,53 L 1322,53 L 1321,53 L 1321,54 L 1319,54 L 1318,54 L 1318,55 L 1316,55 L 1316,56 L 1314,56 L 1314,57 L 1313,57 L 1313,58 L 1312,58 L 1312,59 L 1311,59 L 1311,60 L 1310,60 L 1310,61 L 1309,61 L 1309,63 L 1308,63 L 1308,65 L 1307,65 L 1307,67 L 1306,67 L 1306,69 L 1305,69 L 1305,71 L 1305,73 L 1305,74 L 1304,74 L 1304,76 L 1304,78 L 1304,80 L 1304,82 L 1305,82 L 1305,84 L 1305,86 L 1305,87 L 1306,87 L 1306,89 L 1306,90 L 1307,90 L 1307,92 L 1308,92 L 1308,93 L 1309,93 L 1309,95 L 1310,95 L 1310,96 L 1311,96 L 1311,97 L 1312,97 L 1312,98 L 1313,98 L 1313,99 L 1315,99 L 1315,100 L 1316,100 L 1316,101 L 1318,101 L 1318,102 L 1320,102 L 1321,102 L 1321,103 L 1323,103 L 1325,103 L 1327,103 L 1327,104 L 1329,104 L 1331,104 L 1331,103 L 1333,103 L 1335,103 L 1336,103 L 1336,102 L 1338,102 L 1339,102 L 1339,101 L 1340,101 L 1340,100 L 1342,100 L 1342,99 L 1343,99 L 1343,98 L 1344,98 L 1344,97 L 1345,97 L 1345,96 L 1346,96 L 1346,95 L 1347,95 L 1347,94 L 1348,94 L 1348,92 L 1349,92 L 1349,90 L 1350,90 L 1350,88 L 1351,88 L 1351,86 L 1351,84 L 1352,84 L 1352,82 L 1352,80 L 1352,78 L 1352,76 L 1352,74 L 1352,72 L 1351,72 L 1351,70 L 1351,69 L 1350,69 L 1350,67 L 1350,66 L 1349,66 L 1349,64 L 1348,64 L 1348,62 L 1347,62 L 1347,61 L 1346,61 L 1346,60 L 1345,60 L 1345,59 L 1344,59 L 1344,58 L 1343,58 L 1343,57 L 1342,57 L 1342,56 L 1340,56 L 1340,55 L 1338,55 L 1338,54 L 1336,54 L 1335,54 L 1335,53 L 1333,53 L 1331,53 L 1330,53 L 1330,52 L 1328,52 L 1327,52 Z" fill="#132f55"/>
  <path d="M 1017,52 L 1016,52 L 1016,53 L 1014,53 L 1012,53 L 1011,53 L 1011,54 L 1009,54 L 1008,54 L 1008,55 L 1006,55 L 1006,56 L 1005,56 L 1005,57 L 1003,57 L 1003,58 L 1002,58 L 1002,59 L 1001,59 L 1001,60 L 1000,60 L 1000,62 L 999,62 L 999,63 L 998,63 L 998,65 L 997,65 L 997,67 L 996,67 L 996,69 L 995,69 L 995,71 L 995,73 L 995,75 L 995,77 L 994,77 L 994,78 L 995,78 L 995,80 L 995,82 L 995,84 L 995,86 L 996,86 L 996,88 L 996,89 L 997,89 L 997,91 L 998,91 L 998,92 L 999,92 L 999,94 L 1000,94 L 1000,95 L 1001,95 L 1001,96 L 1002,96 L 1002,97 L 1003,97 L 1003,98 L 1004,98 L 1004,99 L 1005,99 L 1005,100 L 1007,100 L 1007,101 L 1009,101 L 1009,102 L 1011,102 L 1012,102 L 1012,103 L 1014,103 L 1016,103 L 1018,103 L 1020,103 L 1022,103 L 1024,103 L 1025,103 L 1025,102 L 1027,102 L 1028,102 L 1028,101 L 1030,101 L 1030,100 L 1032,100 L 1032,99 L 1033,99 L 1033,98 L 1034,98 L 1034,97 L 1035,97 L 1035,96 L 1036,96 L 1036,95 L 1037,95 L 1037,94 L 1038,94 L 1038,93 L 1039,93 L 1039,91 L 1040,91 L 1040,89 L 1040,88 L 1041,88 L 1041,86 L 1041,85 L 1042,85 L 1042,83 L 1042,81 L 1042,79 L 1042,77 L 1042,75 L 1042,73 L 1042,71 L 1041,71 L 1041,69 L 1041,67 L 1040,67 L 1040,66 L 1039,66 L 1039,64 L 1039,63 L 1038,63 L 1038,62 L 1037,62 L 1037,61 L 1036,61 L 1036,59 L 1035,59 L 1035,58 L 1034,58 L 1034,57 L 1032,57 L 1032,56 L 1031,56 L 1031,55 L 1029,55 L 1028,55 L 1028,54 L 1026,54 L 1026,53 L 1024,53 L 1022,53 L 1021,53 L 1021,52 L 1019,52 L 1017,52 Z" fill="#132f55"/>
  <path d="M 1489,53 L 1488,53 L 1488,54 L 1486,54 L 1485,54 L 1485,55 L 1483,55 L 1483,56 L 1482,56 L 1482,57 L 1481,57 L 1481,58 L 1479,58 L 1479,59 L 1478,59 L 1478,61 L 1477,61 L 1477,62 L 1476,62 L 1476,63 L 1475,63 L 1475,65 L 1474,65 L 1474,67 L 1473,67 L 1473,69 L 1473,71 L 1472,71 L 1472,73 L 1472,75 L 1472,77 L 1472,79 L 1472,81 L 1472,83 L 1472,85 L 1472,86 L 1473,86 L 1473,88 L 1473,89 L 1474,89 L 1474,91 L 1475,91 L 1475,93 L 1476,93 L 1476,94 L 1477,94 L 1477,96 L 1478,96 L 1478,97 L 1479,97 L 1479,98 L 1480,98 L 1480,99 L 1481,99 L 1481,100 L 1483,100 L 1483,101 L 1485,101 L 1485,102 L 1487,102 L 1488,102 L 1488,103 L 1490,103 L 1492,103 L 1492,104 L 1494,104 L 1496,104 L 1498,104 L 1498,103 L 1500,103 L 1502,103 L 1502,102 L 1504,102 L 1506,102 L 1506,101 L 1508,101 L 1508,100 L 1509,100 L 1509,99 L 1510,99 L 1510,98 L 1512,98 L 1512,97 L 1513,97 L 1513,95 L 1514,95 L 1514,94 L 1515,94 L 1515,92 L 1516,92 L 1516,91 L 1517,91 L 1517,89 L 1517,88 L 1518,88 L 1518,86 L 1518,84 L 1518,83 L 1519,83 L 1519,81 L 1519,79 L 1519,77 L 1519,75 L 1519,73 L 1518,73 L 1518,71 L 1518,69 L 1517,69 L 1517,67 L 1517,66 L 1516,66 L 1516,64 L 1515,64 L 1515,63 L 1514,63 L 1514,61 L 1513,61 L 1513,60 L 1512,60 L 1512,59 L 1511,59 L 1511,58 L 1510,58 L 1510,57 L 1509,57 L 1509,56 L 1507,56 L 1507,55 L 1505,55 L 1505,54 L 1503,54 L 1502,54 L 1502,53 L 1500,53 L 1498,53 L 1496,53 L 1494,53 L 1492,53 L 1490,53 L 1489,53 Z" fill="#132f55"/>
  <path d="M 767,52 L 766,52 L 766,53 L 764,53 L 762,53 L 762,54 L 760,54 L 759,54 L 759,55 L 757,55 L 757,56 L 755,56 L 755,57 L 754,57 L 754,58 L 753,58 L 753,59 L 752,59 L 752,60 L 751,60 L 751,61 L 750,61 L 750,63 L 749,63 L 749,64 L 748,64 L 748,66 L 747,66 L 747,68 L 747,69 L 746,69 L 746,71 L 746,73 L 745,73 L 745,75 L 745,77 L 745,79 L 745,81 L 745,83 L 745,84 L 746,84 L 746,86 L 746,88 L 747,88 L 747,90 L 748,90 L 748,92 L 749,92 L 749,94 L 750,94 L 750,95 L 751,95 L 751,96 L 752,96 L 752,97 L 753,97 L 753,98 L 754,98 L 754,99 L 755,99 L 755,100 L 757,100 L 757,101 L 759,101 L 759,102 L 761,102 L 762,102 L 762,103 L 764,103 L 766,103 L 767,103 L 767,104 L 769,104 L 771,104 L 771,103 L 773,103 L 775,103 L 776,103 L 776,102 L 778,102 L 779,102 L 779,101 L 781,101 L 781,100 L 783,100 L 783,99 L 784,99 L 784,98 L 785,98 L 785,97 L 786,97 L 786,96 L 787,96 L 787,94 L 788,94 L 788,93 L 789,93 L 789,91 L 790,91 L 790,89 L 791,89 L 791,87 L 791,85 L 792,85 L 792,83 L 792,81 L 792,79 L 792,77 L 792,75 L 792,73 L 792,71 L 791,71 L 791,69 L 791,67 L 790,67 L 790,65 L 789,65 L 789,63 L 788,63 L 788,62 L 787,62 L 787,60 L 786,60 L 786,59 L 785,59 L 785,58 L 784,58 L 784,57 L 782,57 L 782,56 L 781,56 L 781,55 L 779,55 L 778,55 L 778,54 L 776,54 L 776,53 L 774,53 L 772,53 L 770,53 L 770,52 L 768,52 L 767,52 Z" fill="#132f55"/>
  <path d="M 552,53 L 551,53 L 551,54 L 549,54 L 549,55 L 547,55 L 547,56 L 545,56 L 545,57 L 544,57 L 544,58 L 542,58 L 542,59 L 541,59 L 541,61 L 540,61 L 540,62 L 539,62 L 539,63 L 538,63 L 538,65 L 537,65 L 537,67 L 537,68 L 536,68 L 536,70 L 536,72 L 535,72 L 535,74 L 535,76 L 535,78 L 535,80 L 535,82 L 535,84 L 535,85 L 536,85 L 536,87 L 536,88 L 537,88 L 537,90 L 537,91 L 538,91 L 538,93 L 539,93 L 539,94 L 540,94 L 540,96 L 541,96 L 541,97 L 542,97 L 542,98 L 544,98 L 544,99 L 545,99 L 545,100 L 546,100 L 546,101 L 548,101 L 548,102 L 550,102 L 551,102 L 551,103 L 553,103 L 555,103 L 557,103 L 557,104 L 559,104 L 559,103 L 561,103 L 563,103 L 565,103 L 565,102 L 567,102 L 568,102 L 568,101 L 570,101 L 570,100 L 572,100 L 572,99 L 573,99 L 573,98 L 574,98 L 574,97 L 575,97 L 575,96 L 576,96 L 576,95 L 577,95 L 577,94 L 578,94 L 578,92 L 579,92 L 579,90 L 580,90 L 580,89 L 581,89 L 581,87 L 581,85 L 582,85 L 582,83 L 582,81 L 582,79 L 582,77 L 582,75 L 582,73 L 582,71 L 581,71 L 581,69 L 581,68 L 580,68 L 580,66 L 579,66 L 579,64 L 578,64 L 578,62 L 577,62 L 577,61 L 576,61 L 576,60 L 575,60 L 575,59 L 574,59 L 574,58 L 573,58 L 573,57 L 572,57 L 572,56 L 570,56 L 570,55 L 568,55 L 568,54 L 566,54 L 565,54 L 565,53 L 563,53 L 561,53 L 559,53 L 557,53 L 555,53 L 553,53 L 552,53 Z" fill="#132f55"/>
  <path d="M 151,15 L 150,15 L 150,17 L 150,19 L 150,21 L 150,23 L 150,25 L 150,27 L 150,29 L 150,31 L 150,33 L 150,35 L 150,37 L 150,39 L 150,41 L 150,43 L 150,45 L 150,47 L 150,49 L 150,51 L 150,53 L 150,55 L 150,57 L 150,59 L 152,59 L 154,59 L 156,59 L 158,59 L 160,59 L 162,59 L 164,59 L 166,59 L 168,59 L 170,59 L 172,59 L 174,59 L 176,59 L 176,58 L 178,58 L 180,58 L 181,58 L 181,57 L 183,57 L 183,56 L 185,56 L 185,55 L 186,55 L 186,54 L 188,54 L 188,53 L 189,53 L 189,52 L 190,52 L 190,51 L 191,51 L 191,50 L 192,50 L 192,48 L 193,48 L 193,46 L 194,46 L 194,44 L 194,43 L 195,43 L 195,41 L 195,39 L 195,38 L 196,38 L 196,36 L 195,36 L 195,34 L 195,32 L 195,31 L 194,31 L 194,29 L 194,27 L 193,27 L 193,26 L 192,26 L 192,24 L 191,24 L 191,23 L 190,23 L 190,22 L 189,22 L 189,21 L 188,21 L 188,20 L 187,20 L 187,19 L 185,19 L 185,18 L 183,18 L 182,18 L 182,17 L 180,17 L 179,17 L 179,16 L 177,16 L 175,16 L 173,16 L 171,16 L 169,16 L 167,16 L 165,16 L 164,16 L 164,15 L 163,15 L 163,16 L 162,16 L 162,15 L 160,15 L 159,15 L 159,16 L 158,16 L 158,15 L 157,15 L 157,16 L 155,16 L 154,16 L 154,15 L 152,15 L 152,16 L 151,16 L 151,15 Z" fill="#132f55"/>
  <path d="M 838,18 L 840,18 L 842,18 L 842,20 L 842,22 L 842,24 L 842,26 L 842,28 L 842,30 L 842,32 L 842,34 L 842,36 L 842,38 L 842,40 L 842,42 L 843,42 L 843,43 L 845,43 L 846,43 L 846,42 L 848,42 L 850,42 L 852,42 L 854,42 L 856,42 L 857,42 L 857,43 L 859,43 L 859,45 L 859,47 L 859,49 L 859,51 L 859,53 L 858,53 L 858,54 L 856,54 L 854,54 L 852,54 L 850,54 L 848,54 L 846,54 L 844,54 L 842,54 L 842,56 L 842,58 L 842,60 L 842,62 L 842,64 L 842,66 L 842,68 L 842,70 L 842,72 L 842,74 L 842,76 L 842,78 L 842,80 L 842,82 L 842,84 L 842,86 L 841,86 L 841,87 L 842,87 L 842,89 L 842,91 L 842,93 L 842,95 L 842,97 L 843,97 L 843,99 L 844,99 L 844,100 L 845,100 L 845,101 L 846,101 L 846,102 L 848,102 L 848,103 L 850,103 L 852,103 L 854,103 L 856,103 L 858,103 L 858,104 L 859,104 L 859,106 L 859,108 L 859,110 L 859,112 L 859,114 L 857,114 L 855,114 L 854,114 L 854,115 L 852,115 L 850,115 L 849,115 L 849,114 L 847,114 L 845,114 L 843,114 L 843,113 L 841,113 L 840,113 L 840,112 L 838,112 L 838,111 L 836,111 L 836,110 L 835,110 L 835,109 L 834,109 L 834,108 L 833,108 L 833,107 L 832,107 L 832,105 L 831,105 L 831,103 L 830,103 L 830,101 L 830,99 L 829,99 L 829,97 L 829,95 L 829,93 L 829,91 L 829,89 L 829,87 L 829,85 L 829,83 L 829,81 L 829,79 L 829,77 L 829,75 L 829,73 L 829,71 L 829,69 L 829,67 L 829,65 L 829,63 L 829,61 L 829,59 L 829,57 L 829,55 L 829,53 L 828,53 L 828,54 L 826,54 L 824,54 L 822,54 L 820,54 L 818,54 L 817,54 L 817,53 L 816,53 L 816,51 L 816,49 L 816,47 L 816,45 L 816,43 L 817,43 L 817,42 L 819,42 L 821,42 L 823,42 L 823,43 L 824,43 L 824,42 L 826,42 L 828,42 L 829,42 L 829,40 L 829,38 L 829,36 L 829,34 L 829,32 L 829,30 L 829,28 L 829,26 L 829,24 L 829,22 L 829,21 L 830,21 L 830,20 L 832,20 L 832,19 L 834,19 L 836,19 L 838,19 L 838,18 Z" fill="#132f55"/>
  <path d="M 91,182 L 93,182 L 95,182 L 97,182 L 99,182 L 100,182 L 100,183 L 102,183 L 103,183 L 103,184 L 105,184 L 105,185 L 106,185 L 106,186 L 108,186 L 108,187 L 109,187 L 109,189 L 110,189 L 110,190 L 111,190 L 111,192 L 112,192 L 112,193 L 113,193 L 113,195 L 113,197 L 113,198 L 114,198 L 114,200 L 114,202 L 114,204 L 114,205 L 113,205 L 113,207 L 113,209 L 112,209 L 112,211 L 111,211 L 111,213 L 110,213 L 110,215 L 109,215 L 109,216 L 108,216 L 108,217 L 107,217 L 107,218 L 105,218 L 105,219 L 103,219 L 103,220 L 101,220 L 101,221 L 99,221 L 97,221 L 95,221 L 93,221 L 91,221 L 90,221 L 90,220 L 88,220 L 88,219 L 86,219 L 86,218 L 85,218 L 85,217 L 84,217 L 84,216 L 83,216 L 83,215 L 82,215 L 82,217 L 82,219 L 82,221 L 82,223 L 82,225 L 82,227 L 82,229 L 82,231 L 82,232 L 80,232 L 78,232 L 76,232 L 75,232 L 75,230 L 75,228 L 75,226 L 75,224 L 75,222 L 75,220 L 75,218 L 75,216 L 75,214 L 75,212 L 75,210 L 75,208 L 75,206 L 75,204 L 75,202 L 75,200 L 75,198 L 75,196 L 75,194 L 75,192 L 75,190 L 75,188 L 75,186 L 75,184 L 75,183 L 77,183 L 79,183 L 81,183 L 82,183 L 82,185 L 82,187 L 82,188 L 83,188 L 83,187 L 84,187 L 84,186 L 85,186 L 85,185 L 86,185 L 86,184 L 88,184 L 88,183 L 90,183 L 91,183 L 91,182 Z" fill="#132f55"/>
  <path d="M 29,174 L 28,174 L 28,175 L 26,175 L 24,175 L 22,175 L 22,176 L 20,176 L 20,177 L 18,177 L 18,178 L 17,178 L 17,179 L 15,179 L 15,180 L 14,180 L 14,182 L 13,182 L 13,183 L 12,183 L 12,185 L 11,185 L 11,187 L 10,187 L 10,189 L 10,191 L 9,191 L 9,193 L 9,195 L 9,197 L 9,199 L 9,200 L 10,200 L 10,202 L 11,202 L 11,204 L 11,205 L 12,205 L 12,206 L 13,206 L 13,208 L 14,208 L 14,209 L 15,209 L 15,210 L 16,210 L 16,211 L 17,211 L 17,212 L 19,212 L 19,213 L 21,213 L 21,214 L 23,214 L 24,214 L 24,215 L 26,215 L 28,215 L 30,215 L 32,215 L 34,215 L 34,214 L 36,214 L 37,214 L 37,213 L 39,213 L 39,212 L 41,212 L 41,211 L 42,211 L 42,210 L 43,210 L 43,209 L 44,209 L 44,207 L 45,207 L 45,206 L 46,206 L 46,204 L 47,204 L 47,202 L 47,200 L 48,200 L 48,198 L 48,196 L 48,194 L 48,192 L 48,190 L 48,189 L 47,189 L 47,187 L 47,186 L 46,186 L 46,184 L 45,184 L 45,182 L 44,182 L 44,181 L 43,181 L 43,180 L 42,180 L 42,179 L 41,179 L 41,178 L 39,178 L 39,177 L 37,177 L 37,176 L 35,176 L 35,175 L 33,175 L 31,175 L 29,175 L 29,174 Z" fill="#132f55"/>
  <path d="M 714,42 L 716,42 L 718,42 L 720,42 L 722,42 L 724,42 L 726,42 L 728,42 L 729,42 L 729,44 L 729,46 L 729,47 L 728,47 L 728,49 L 728,51 L 728,53 L 728,54 L 726,54 L 724,54 L 722,54 L 720,54 L 718,54 L 716,54 L 714,54 L 714,55 L 712,55 L 711,55 L 711,56 L 710,56 L 710,57 L 708,57 L 708,58 L 707,58 L 707,59 L 706,59 L 706,61 L 705,61 L 705,62 L 704,62 L 704,64 L 704,65 L 703,65 L 703,67 L 703,68 L 702,68 L 702,70 L 702,72 L 702,74 L 702,76 L 702,78 L 702,80 L 702,82 L 702,84 L 702,86 L 702,88 L 702,90 L 702,92 L 702,94 L 702,96 L 702,98 L 702,100 L 702,102 L 702,104 L 702,106 L 702,108 L 702,110 L 702,112 L 702,113 L 701,113 L 701,114 L 699,114 L 697,114 L 695,114 L 693,114 L 691,114 L 689,114 L 689,112 L 689,110 L 689,108 L 689,106 L 689,104 L 689,102 L 689,100 L 689,98 L 689,96 L 689,94 L 689,92 L 689,90 L 689,88 L 689,86 L 689,84 L 689,82 L 689,80 L 689,78 L 689,76 L 689,74 L 689,72 L 689,70 L 689,68 L 689,66 L 689,64 L 689,62 L 689,60 L 689,58 L 689,56 L 689,54 L 689,52 L 689,50 L 689,48 L 689,46 L 689,44 L 689,43 L 691,43 L 693,43 L 695,43 L 697,43 L 699,43 L 701,43 L 701,45 L 701,47 L 701,49 L 701,51 L 702,51 L 702,50 L 703,50 L 703,49 L 704,49 L 704,48 L 705,48 L 705,47 L 706,47 L 706,46 L 707,46 L 707,45 L 709,45 L 709,44 L 711,44 L 711,43 L 713,43 L 714,43 L 714,42 Z" fill="#132f55"/>
  <path d="M 1238,182 L 1240,182 L 1242,182 L 1244,182 L 1246,182 L 1248,182 L 1248,183 L 1250,183 L 1251,183 L 1251,184 L 1253,184 L 1253,185 L 1255,185 L 1255,186 L 1256,186 L 1256,187 L 1257,187 L 1257,188 L 1258,188 L 1258,189 L 1259,189 L 1259,190 L 1260,190 L 1260,192 L 1261,192 L 1261,194 L 1262,194 L 1262,196 L 1262,197 L 1263,197 L 1263,199 L 1263,201 L 1263,203 L 1263,205 L 1263,207 L 1262,207 L 1262,209 L 1261,209 L 1261,211 L 1260,211 L 1260,213 L 1259,213 L 1259,214 L 1258,214 L 1258,215 L 1257,215 L 1257,216 L 1256,216 L 1256,217 L 1255,217 L 1255,218 L 1254,218 L 1254,219 L 1252,219 L 1252,220 L 1250,220 L 1250,221 L 1248,221 L 1246,221 L 1244,221 L 1242,221 L 1240,221 L 1238,221 L 1238,220 L 1236,220 L 1235,220 L 1235,219 L 1233,219 L 1233,218 L 1232,218 L 1232,217 L 1230,217 L 1230,216 L 1229,216 L 1229,215 L 1228,215 L 1228,214 L 1227,214 L 1227,212 L 1226,212 L 1226,210 L 1225,210 L 1225,208 L 1224,208 L 1224,206 L 1224,204 L 1224,203 L 1223,203 L 1223,202 L 1224,202 L 1224,200 L 1224,198 L 1224,196 L 1225,196 L 1225,194 L 1225,193 L 1226,193 L 1226,191 L 1227,191 L 1227,190 L 1228,190 L 1228,189 L 1229,189 L 1229,187 L 1230,187 L 1230,186 L 1232,186 L 1232,185 L 1233,185 L 1233,184 L 1235,184 L 1235,183 L 1237,183 L 1238,183 L 1238,182 Z" fill="#132f55"/>
  <path d="M 350,182 L 352,182 L 354,182 L 356,182 L 358,182 L 360,182 L 360,183 L 362,183 L 363,183 L 363,184 L 365,184 L 365,185 L 366,185 L 366,186 L 368,186 L 368,187 L 369,187 L 369,188 L 370,188 L 370,190 L 371,190 L 371,191 L 372,191 L 372,193 L 373,193 L 373,195 L 373,196 L 374,196 L 374,198 L 374,200 L 375,200 L 375,202 L 375,203 L 374,203 L 374,205 L 374,207 L 373,207 L 373,209 L 373,210 L 372,210 L 372,212 L 371,212 L 371,213 L 370,213 L 370,214 L 369,214 L 369,216 L 367,216 L 367,217 L 366,217 L 366,218 L 365,218 L 365,219 L 363,219 L 363,220 L 361,220 L 360,220 L 360,221 L 358,221 L 356,221 L 354,221 L 352,221 L 350,221 L 349,221 L 349,220 L 347,220 L 346,220 L 346,219 L 344,219 L 344,218 L 343,218 L 343,217 L 342,217 L 342,216 L 341,216 L 341,215 L 340,215 L 340,214 L 339,214 L 339,213 L 338,213 L 338,211 L 337,211 L 337,210 L 336,210 L 336,208 L 336,207 L 335,207 L 335,205 L 335,203 L 335,201 L 335,199 L 335,197 L 336,197 L 336,195 L 336,194 L 337,194 L 337,192 L 338,192 L 338,190 L 339,190 L 339,189 L 340,189 L 340,188 L 341,188 L 341,187 L 342,187 L 342,186 L 343,186 L 343,185 L 345,185 L 345,184 L 347,184 L 347,183 L 349,183 L 350,183 L 350,182 Z" fill="#132f55"/>
  <path d="M 1280,41 L 1282,41 L 1283,41 L 1283,42 L 1285,42 L 1287,42 L 1288,42 L 1288,44 L 1288,46 L 1288,48 L 1288,50 L 1288,52 L 1288,54 L 1286,54 L 1284,54 L 1282,54 L 1280,54 L 1278,54 L 1276,54 L 1274,54 L 1273,54 L 1273,55 L 1271,55 L 1271,56 L 1269,56 L 1269,57 L 1268,57 L 1268,58 L 1267,58 L 1267,59 L 1266,59 L 1266,60 L 1265,60 L 1265,61 L 1264,61 L 1264,63 L 1263,63 L 1263,65 L 1263,66 L 1262,66 L 1262,68 L 1262,70 L 1262,71 L 1261,71 L 1261,73 L 1261,75 L 1261,77 L 1261,79 L 1261,81 L 1261,83 L 1261,85 L 1261,87 L 1261,89 L 1261,91 L 1261,93 L 1261,95 L 1261,97 L 1261,99 L 1261,101 L 1261,103 L 1261,105 L 1261,107 L 1261,109 L 1261,111 L 1261,113 L 1261,114 L 1259,114 L 1257,114 L 1255,114 L 1253,114 L 1251,114 L 1249,114 L 1249,112 L 1248,112 L 1248,110 L 1249,110 L 1249,108 L 1249,106 L 1249,104 L 1249,102 L 1249,100 L 1249,98 L 1249,96 L 1249,94 L 1249,92 L 1249,90 L 1249,88 L 1249,86 L 1249,84 L 1249,82 L 1249,80 L 1249,78 L 1249,76 L 1249,74 L 1249,72 L 1249,70 L 1249,68 L 1249,66 L 1249,64 L 1249,62 L 1249,60 L 1249,58 L 1249,56 L 1249,54 L 1249,52 L 1249,50 L 1249,48 L 1249,46 L 1249,44 L 1248,44 L 1248,43 L 1250,43 L 1252,43 L 1254,43 L 1256,43 L 1258,43 L 1260,43 L 1260,45 L 1260,46 L 1261,46 L 1261,48 L 1261,50 L 1261,51 L 1262,51 L 1262,49 L 1263,49 L 1263,48 L 1264,48 L 1264,47 L 1265,47 L 1265,46 L 1267,46 L 1267,45 L 1268,45 L 1268,44 L 1270,44 L 1270,43 L 1272,43 L 1273,43 L 1273,42 L 1275,42 L 1277,42 L 1279,42 L 1280,42 L 1280,41 Z" fill="#132f55"/>
  <path d="M 718,169 L 720,169 L 722,169 L 724,169 L 725,169 L 725,171 L 726,171 L 726,172 L 727,172 L 727,174 L 728,174 L 728,175 L 729,175 L 729,177 L 730,177 L 730,178 L 731,178 L 731,180 L 732,180 L 732,181 L 733,181 L 733,183 L 734,183 L 734,184 L 735,184 L 735,185 L 736,185 L 736,187 L 737,187 L 737,188 L 738,188 L 738,190 L 739,190 L 739,192 L 740,192 L 740,193 L 741,193 L 741,194 L 742,194 L 742,196 L 743,196 L 743,197 L 744,197 L 744,195 L 745,195 L 745,194 L 746,194 L 746,192 L 747,192 L 747,191 L 748,191 L 748,189 L 749,189 L 749,187 L 750,187 L 750,186 L 751,186 L 751,184 L 752,184 L 752,183 L 753,183 L 753,181 L 754,181 L 754,180 L 755,180 L 755,178 L 756,178 L 756,177 L 757,177 L 757,175 L 758,175 L 758,174 L 759,174 L 759,172 L 760,172 L 760,171 L 761,171 L 761,169 L 763,169 L 765,169 L 767,169 L 768,169 L 768,170 L 769,170 L 769,172 L 768,172 L 768,174 L 768,176 L 768,178 L 768,180 L 768,182 L 768,184 L 768,186 L 768,188 L 768,190 L 768,192 L 768,194 L 768,196 L 768,198 L 768,200 L 768,202 L 768,204 L 768,206 L 768,208 L 768,210 L 768,212 L 768,214 L 768,216 L 768,218 L 768,220 L 766,220 L 764,220 L 762,220 L 762,218 L 762,216 L 762,214 L 762,212 L 762,210 L 762,208 L 762,206 L 762,204 L 762,202 L 762,200 L 762,198 L 762,196 L 762,194 L 762,192 L 762,190 L 762,188 L 762,186 L 762,184 L 762,182 L 762,181 L 761,181 L 761,182 L 760,182 L 760,184 L 759,184 L 759,185 L 758,185 L 758,187 L 757,187 L 757,189 L 756,189 L 756,190 L 755,190 L 755,192 L 754,192 L 754,193 L 753,193 L 753,195 L 752,195 L 752,196 L 751,196 L 751,197 L 750,197 L 750,199 L 749,199 L 749,200 L 748,200 L 748,202 L 747,202 L 747,203 L 746,203 L 746,205 L 745,205 L 745,206 L 744,206 L 744,207 L 742,207 L 742,206 L 741,206 L 741,204 L 740,204 L 740,203 L 739,203 L 739,201 L 738,201 L 738,200 L 737,200 L 737,198 L 736,198 L 736,197 L 735,197 L 735,196 L 734,196 L 734,194 L 733,194 L 733,193 L 732,193 L 732,191 L 731,191 L 731,190 L 730,190 L 730,188 L 729,188 L 729,187 L 728,187 L 728,185 L 727,185 L 727,184 L 726,184 L 726,182 L 725,182 L 725,184 L 724,184 L 724,186 L 724,188 L 724,190 L 724,192 L 724,194 L 724,196 L 724,198 L 724,200 L 724,202 L 724,204 L 724,206 L 724,208 L 724,210 L 724,212 L 724,214 L 724,216 L 724,218 L 724,220 L 722,220 L 720,220 L 718,220 L 718,219 L 717,219 L 717,218 L 718,218 L 718,216 L 718,214 L 718,212 L 718,210 L 718,208 L 718,206 L 718,204 L 718,202 L 718,200 L 718,198 L 718,196 L 718,194 L 718,192 L 718,190 L 718,188 L 718,186 L 718,184 L 718,182 L 718,180 L 718,178 L 718,176 L 718,174 L 718,172 L 718,170 L 718,169 Z" fill="#132f55"/>
  <path d="M 615,168 L 617,168 L 619,168 L 621,168 L 623,168 L 624,168 L 624,169 L 626,169 L 628,169 L 628,170 L 630,170 L 631,170 L 631,171 L 633,171 L 633,172 L 635,172 L 635,173 L 636,173 L 636,174 L 637,174 L 637,175 L 638,175 L 638,177 L 637,177 L 637,178 L 636,178 L 636,179 L 635,179 L 635,180 L 633,180 L 633,179 L 631,179 L 631,178 L 630,178 L 630,177 L 628,177 L 628,176 L 626,176 L 625,176 L 625,175 L 623,175 L 621,175 L 619,175 L 617,175 L 615,175 L 613,175 L 613,176 L 611,176 L 610,176 L 610,177 L 608,177 L 608,178 L 607,178 L 607,179 L 606,179 L 606,180 L 605,180 L 605,181 L 604,181 L 604,182 L 603,182 L 603,183 L 602,183 L 602,185 L 601,185 L 601,187 L 601,188 L 600,188 L 600,190 L 600,192 L 599,192 L 599,194 L 599,196 L 599,198 L 600,198 L 600,200 L 600,202 L 601,202 L 601,204 L 601,205 L 602,205 L 602,207 L 603,207 L 603,208 L 604,208 L 604,210 L 606,210 L 606,211 L 607,211 L 607,212 L 608,212 L 608,213 L 610,213 L 610,214 L 612,214 L 613,214 L 613,215 L 615,215 L 617,215 L 619,215 L 621,215 L 623,215 L 624,215 L 624,214 L 626,214 L 628,214 L 628,213 L 630,213 L 630,212 L 632,212 L 632,211 L 633,211 L 633,209 L 633,207 L 633,205 L 633,203 L 633,201 L 633,199 L 631,199 L 629,199 L 627,199 L 625,199 L 623,199 L 621,199 L 619,199 L 618,199 L 618,197 L 618,195 L 618,193 L 620,193 L 622,193 L 624,193 L 626,193 L 628,193 L 630,193 L 632,193 L 634,193 L 636,193 L 636,192 L 638,192 L 639,192 L 639,193 L 640,193 L 640,195 L 640,197 L 640,199 L 640,201 L 640,203 L 640,205 L 640,207 L 640,209 L 640,211 L 640,213 L 639,213 L 639,214 L 638,214 L 638,215 L 637,215 L 637,216 L 635,216 L 635,217 L 633,217 L 633,218 L 632,218 L 632,219 L 630,219 L 629,219 L 629,220 L 627,220 L 626,220 L 626,221 L 624,221 L 622,221 L 620,221 L 618,221 L 616,221 L 614,221 L 612,221 L 612,220 L 610,220 L 608,220 L 608,219 L 606,219 L 606,218 L 604,218 L 604,217 L 603,217 L 603,216 L 601,216 L 601,215 L 600,215 L 600,214 L 599,214 L 599,213 L 598,213 L 598,212 L 597,212 L 597,210 L 596,210 L 596,209 L 595,209 L 595,207 L 594,207 L 594,205 L 594,204 L 593,204 L 593,202 L 593,200 L 593,198 L 593,197 L 592,197 L 592,195 L 592,193 L 592,192 L 593,192 L 593,190 L 593,188 L 593,187 L 594,187 L 594,185 L 594,184 L 595,184 L 595,182 L 596,182 L 596,180 L 597,180 L 597,179 L 598,179 L 598,177 L 599,177 L 599,176 L 600,176 L 600,175 L 601,175 L 601,174 L 603,174 L 603,173 L 604,173 L 604,172 L 606,172 L 606,171 L 607,171 L 607,170 L 609,170 L 610,170 L 610,169 L 612,169 L 614,169 L 615,169 L 615,168 Z" fill="#132f55"/>
  <path d="M 230,182 L 232,182 L 234,182 L 236,182 L 238,182 L 240,182 L 240,183 L 242,183 L 244,183 L 244,184 L 246,184 L 246,185 L 247,185 L 247,186 L 248,186 L 248,187 L 249,187 L 249,188 L 250,188 L 250,190 L 251,190 L 251,192 L 252,192 L 252,194 L 252,196 L 252,198 L 252,200 L 252,202 L 252,204 L 252,206 L 252,208 L 252,210 L 252,212 L 252,214 L 252,216 L 252,218 L 252,220 L 250,220 L 248,220 L 247,220 L 247,221 L 246,221 L 246,219 L 245,219 L 245,217 L 246,217 L 246,216 L 245,216 L 245,217 L 244,217 L 244,218 L 242,218 L 242,219 L 241,219 L 241,220 L 239,220 L 238,220 L 238,221 L 236,221 L 234,221 L 232,221 L 230,221 L 228,221 L 228,220 L 226,220 L 225,220 L 225,219 L 223,219 L 223,218 L 222,218 L 222,217 L 221,217 L 221,216 L 220,216 L 220,214 L 219,214 L 219,212 L 219,211 L 218,211 L 218,209 L 218,207 L 219,207 L 219,205 L 219,204 L 220,204 L 220,202 L 221,202 L 221,201 L 222,201 L 222,200 L 224,200 L 224,199 L 226,199 L 226,198 L 228,198 L 228,197 L 230,197 L 232,197 L 234,197 L 236,197 L 238,197 L 240,197 L 242,197 L 244,197 L 244,198 L 246,198 L 246,196 L 245,196 L 245,194 L 245,192 L 244,192 L 244,191 L 243,191 L 243,190 L 242,190 L 242,189 L 240,189 L 239,189 L 239,188 L 237,188 L 235,188 L 233,188 L 231,188 L 231,189 L 229,189 L 228,189 L 228,190 L 226,190 L 226,191 L 224,191 L 223,191 L 223,189 L 223,188 L 222,188 L 222,186 L 222,185 L 224,185 L 224,184 L 226,184 L 227,184 L 227,183 L 229,183 L 230,183 L 230,182 Z" fill="#132f55"/>
  <path d="M 1013,182 L 1015,182 L 1017,182 L 1019,182 L 1021,182 L 1023,182 L 1024,182 L 1024,183 L 1026,183 L 1026,184 L 1028,184 L 1028,185 L 1029,185 L 1029,186 L 1031,186 L 1031,188 L 1032,188 L 1032,189 L 1033,189 L 1033,190 L 1034,190 L 1034,192 L 1035,192 L 1035,194 L 1035,195 L 1036,195 L 1036,197 L 1036,199 L 1036,200 L 1037,200 L 1037,202 L 1037,204 L 1035,204 L 1033,204 L 1031,204 L 1029,204 L 1027,204 L 1025,204 L 1023,204 L 1021,204 L 1019,204 L 1017,204 L 1015,204 L 1013,204 L 1011,204 L 1009,204 L 1007,204 L 1007,206 L 1007,208 L 1008,208 L 1008,210 L 1009,210 L 1009,211 L 1010,211 L 1010,212 L 1011,212 L 1011,213 L 1012,213 L 1012,214 L 1014,214 L 1014,215 L 1016,215 L 1018,215 L 1020,215 L 1022,215 L 1024,215 L 1024,214 L 1026,214 L 1027,214 L 1027,213 L 1028,213 L 1028,212 L 1030,212 L 1030,211 L 1032,211 L 1032,212 L 1034,212 L 1034,213 L 1035,213 L 1035,214 L 1034,214 L 1034,215 L 1033,215 L 1033,217 L 1031,217 L 1031,218 L 1030,218 L 1030,219 L 1028,219 L 1028,220 L 1026,220 L 1025,220 L 1025,221 L 1023,221 L 1021,221 L 1019,221 L 1017,221 L 1015,221 L 1014,221 L 1014,220 L 1012,220 L 1011,220 L 1011,219 L 1009,219 L 1009,218 L 1007,218 L 1007,217 L 1006,217 L 1006,216 L 1005,216 L 1005,215 L 1004,215 L 1004,213 L 1003,213 L 1003,212 L 1002,212 L 1002,210 L 1001,210 L 1001,208 L 1001,207 L 1000,207 L 1000,205 L 1000,203 L 1000,201 L 1000,199 L 1000,197 L 1001,197 L 1001,195 L 1001,194 L 1002,194 L 1002,192 L 1002,191 L 1003,191 L 1003,190 L 1004,190 L 1004,188 L 1005,188 L 1005,187 L 1006,187 L 1006,186 L 1008,186 L 1008,185 L 1009,185 L 1009,184 L 1011,184 L 1011,183 L 1013,183 L 1013,182 Z" fill="#132f55"/>
  <path d="M 144,182 L 146,182 L 148,182 L 150,182 L 152,182 L 153,182 L 153,183 L 155,183 L 156,183 L 156,184 L 158,184 L 158,185 L 159,185 L 159,186 L 160,186 L 160,187 L 161,187 L 161,188 L 162,188 L 162,189 L 163,189 L 163,191 L 164,191 L 164,193 L 165,193 L 165,195 L 165,196 L 166,196 L 166,198 L 166,200 L 166,202 L 166,204 L 164,204 L 162,204 L 160,204 L 158,204 L 156,204 L 154,204 L 152,204 L 150,204 L 148,204 L 146,204 L 144,204 L 142,204 L 140,204 L 138,204 L 137,204 L 137,206 L 137,208 L 138,208 L 138,210 L 139,210 L 139,211 L 140,211 L 140,212 L 141,212 L 141,213 L 142,213 L 142,214 L 144,214 L 144,215 L 146,215 L 147,215 L 147,216 L 149,216 L 151,216 L 152,216 L 152,215 L 154,215 L 155,215 L 155,214 L 157,214 L 157,213 L 158,213 L 158,212 L 159,212 L 159,211 L 161,211 L 162,211 L 162,212 L 163,212 L 163,213 L 164,213 L 164,215 L 163,215 L 163,216 L 162,216 L 162,217 L 161,217 L 161,218 L 159,218 L 159,219 L 157,219 L 157,220 L 155,220 L 154,220 L 154,221 L 152,221 L 150,221 L 148,221 L 146,221 L 144,221 L 144,220 L 142,220 L 141,220 L 141,219 L 139,219 L 139,218 L 137,218 L 137,217 L 136,217 L 136,216 L 135,216 L 135,215 L 134,215 L 134,213 L 133,213 L 133,212 L 132,212 L 132,210 L 131,210 L 131,208 L 131,207 L 130,207 L 130,205 L 130,203 L 130,201 L 130,199 L 130,197 L 130,195 L 131,195 L 131,193 L 132,193 L 132,191 L 133,191 L 133,190 L 134,190 L 134,188 L 135,188 L 135,187 L 136,187 L 136,186 L 137,186 L 137,185 L 139,185 L 139,184 L 141,184 L 141,183 L 143,183 L 144,183 L 144,182 Z" fill="#132f55"/>
  <path d="M 895,169 L 897,169 L 899,169 L 901,169 L 903,169 L 905,169 L 907,169 L 909,169 L 911,169 L 913,169 L 915,169 L 917,169 L 919,169 L 921,169 L 923,169 L 925,169 L 927,169 L 929,169 L 931,169 L 932,169 L 932,171 L 932,173 L 932,175 L 930,175 L 928,175 L 926,175 L 924,175 L 922,175 L 920,175 L 918,175 L 916,175 L 914,175 L 912,175 L 910,175 L 908,175 L 906,175 L 904,175 L 902,175 L 902,177 L 902,179 L 902,181 L 902,183 L 902,185 L 902,187 L 902,189 L 902,191 L 904,191 L 906,191 L 908,191 L 910,191 L 912,191 L 914,191 L 916,191 L 918,191 L 920,191 L 922,191 L 924,191 L 926,191 L 928,191 L 929,191 L 929,193 L 929,195 L 929,197 L 927,197 L 925,197 L 923,197 L 921,197 L 919,197 L 917,197 L 915,197 L 913,197 L 911,197 L 909,197 L 907,197 L 905,197 L 903,197 L 902,197 L 902,199 L 902,201 L 902,203 L 902,205 L 902,207 L 902,209 L 902,211 L 902,213 L 902,214 L 904,214 L 906,214 L 908,214 L 910,214 L 912,214 L 914,214 L 916,214 L 918,214 L 920,214 L 922,214 L 924,214 L 926,214 L 928,214 L 930,214 L 931,214 L 931,215 L 932,215 L 932,217 L 932,219 L 932,220 L 930,220 L 928,220 L 926,220 L 924,220 L 922,220 L 920,220 L 918,220 L 916,220 L 914,220 L 912,220 L 910,220 L 908,220 L 906,220 L 904,220 L 902,220 L 900,220 L 898,220 L 896,220 L 895,220 L 895,218 L 895,216 L 895,214 L 895,212 L 895,210 L 895,208 L 895,206 L 895,204 L 895,202 L 895,200 L 895,198 L 895,196 L 895,194 L 895,192 L 895,190 L 895,188 L 895,186 L 895,184 L 895,182 L 895,180 L 895,178 L 895,176 L 895,174 L 895,172 L 895,170 L 895,169 Z" fill="#132f55"/>
  <path d="M 873,43 L 875,43 L 877,43 L 879,43 L 881,43 L 883,43 L 885,43 L 885,45 L 885,47 L 885,49 L 885,51 L 885,53 L 885,55 L 885,57 L 885,59 L 885,61 L 885,63 L 885,65 L 885,67 L 885,69 L 885,71 L 885,73 L 885,75 L 885,77 L 885,79 L 885,81 L 886,81 L 886,82 L 885,82 L 885,83 L 886,83 L 886,84 L 885,84 L 885,86 L 885,88 L 885,90 L 885,92 L 885,94 L 885,96 L 885,98 L 885,100 L 885,102 L 885,104 L 885,106 L 885,108 L 885,110 L 885,111 L 886,111 L 886,113 L 885,113 L 885,114 L 883,114 L 881,114 L 879,114 L 877,114 L 875,114 L 874,114 L 874,113 L 873,113 L 873,111 L 873,109 L 873,107 L 873,105 L 873,103 L 873,101 L 873,99 L 873,97 L 873,95 L 873,93 L 873,91 L 873,89 L 873,87 L 873,85 L 873,83 L 873,81 L 873,79 L 873,77 L 873,75 L 873,73 L 873,71 L 873,69 L 873,67 L 873,65 L 873,63 L 873,61 L 873,59 L 873,57 L 873,55 L 873,53 L 873,51 L 873,49 L 873,47 L 873,45 L 873,43 Z" fill="#132f55"/>
  <path d="M 637,52 L 636,52 L 636,53 L 634,53 L 632,53 L 632,54 L 630,54 L 630,55 L 628,55 L 628,56 L 627,56 L 627,57 L 626,57 L 626,58 L 624,58 L 624,60 L 623,60 L 623,61 L 622,61 L 622,62 L 621,62 L 621,64 L 621,65 L 620,65 L 620,67 L 619,67 L 619,69 L 619,70 L 618,70 L 618,71 L 620,71 L 620,72 L 621,72 L 621,71 L 623,71 L 623,72 L 624,72 L 624,71 L 626,71 L 628,71 L 630,71 L 632,71 L 634,71 L 636,71 L 638,71 L 640,71 L 642,71 L 644,71 L 646,71 L 648,71 L 650,71 L 652,71 L 654,71 L 656,71 L 658,71 L 660,71 L 661,71 L 661,69 L 661,67 L 660,67 L 660,65 L 660,64 L 659,64 L 659,63 L 658,63 L 658,61 L 657,61 L 657,59 L 656,59 L 656,58 L 655,58 L 655,57 L 654,57 L 654,56 L 652,56 L 652,55 L 650,55 L 650,54 L 648,54 L 648,53 L 646,53 L 645,53 L 645,52 L 643,52 L 641,52 L 639,52 L 637,52 Z" fill="#132f55"/>
  <path d="M 406,182 L 408,182 L 410,182 L 412,182 L 414,182 L 416,182 L 416,183 L 418,183 L 418,184 L 420,184 L 420,185 L 421,185 L 421,186 L 422,186 L 422,187 L 423,187 L 423,189 L 424,189 L 424,191 L 425,191 L 425,193 L 425,194 L 426,194 L 426,196 L 426,198 L 426,200 L 426,202 L 426,204 L 426,206 L 426,208 L 426,210 L 426,212 L 426,214 L 426,216 L 426,218 L 426,220 L 424,220 L 422,220 L 420,220 L 419,220 L 419,218 L 419,216 L 419,214 L 419,212 L 419,210 L 419,208 L 419,206 L 419,204 L 419,202 L 419,200 L 419,198 L 419,196 L 419,194 L 418,194 L 418,192 L 417,192 L 417,191 L 416,191 L 416,190 L 415,190 L 415,189 L 413,189 L 413,188 L 411,188 L 409,188 L 407,188 L 405,188 L 405,189 L 403,189 L 403,190 L 402,190 L 402,191 L 401,191 L 401,192 L 400,192 L 400,194 L 399,194 L 399,196 L 399,198 L 399,200 L 399,202 L 399,204 L 399,206 L 399,208 L 399,210 L 399,212 L 399,214 L 399,216 L 399,218 L 399,220 L 397,220 L 395,220 L 393,220 L 392,220 L 392,218 L 392,216 L 392,214 L 392,212 L 392,210 L 392,208 L 392,206 L 392,204 L 392,202 L 392,200 L 392,198 L 392,196 L 392,194 L 392,192 L 392,190 L 392,188 L 392,186 L 392,184 L 392,183 L 394,183 L 396,183 L 398,183 L 399,183 L 399,185 L 399,187 L 400,187 L 400,186 L 401,186 L 401,185 L 402,185 L 402,184 L 404,184 L 404,183 L 406,183 L 406,182 Z" fill="#132f55"/>
  <path d="M 351,188 L 350,188 L 350,189 L 348,189 L 348,190 L 347,190 L 347,191 L 346,191 L 346,192 L 345,192 L 345,193 L 344,193 L 344,194 L 343,194 L 343,196 L 343,197 L 342,197 L 342,199 L 342,201 L 342,203 L 342,205 L 342,206 L 343,206 L 343,208 L 343,209 L 344,209 L 344,210 L 345,210 L 345,212 L 347,212 L 347,213 L 348,213 L 348,214 L 350,214 L 350,215 L 352,215 L 354,215 L 356,215 L 358,215 L 360,215 L 360,214 L 362,214 L 362,213 L 363,213 L 363,212 L 364,212 L 364,211 L 365,211 L 365,210 L 366,210 L 366,208 L 367,208 L 367,206 L 367,204 L 368,204 L 368,202 L 368,200 L 368,199 L 367,199 L 367,197 L 367,195 L 366,195 L 366,194 L 365,194 L 365,192 L 364,192 L 364,191 L 363,191 L 363,190 L 361,190 L 361,189 L 359,189 L 359,188 L 357,188 L 355,188 L 353,188 L 351,188 Z" fill="#132f55"/>
  <path d="M 1240,188 L 1239,188 L 1239,189 L 1237,189 L 1237,190 L 1235,190 L 1235,191 L 1234,191 L 1234,192 L 1233,192 L 1233,194 L 1232,194 L 1232,196 L 1231,196 L 1231,198 L 1231,200 L 1231,201 L 1230,201 L 1230,202 L 1231,202 L 1231,204 L 1231,206 L 1231,208 L 1232,208 L 1232,210 L 1233,210 L 1233,211 L 1234,211 L 1234,212 L 1235,212 L 1235,213 L 1237,213 L 1237,214 L 1239,214 L 1239,215 L 1241,215 L 1243,215 L 1245,215 L 1247,215 L 1248,215 L 1248,214 L 1250,214 L 1250,213 L 1252,213 L 1252,212 L 1253,212 L 1253,211 L 1254,211 L 1254,209 L 1255,209 L 1255,207 L 1256,207 L 1256,205 L 1256,203 L 1256,201 L 1256,199 L 1256,197 L 1255,197 L 1255,195 L 1255,194 L 1254,194 L 1254,193 L 1253,193 L 1253,192 L 1252,192 L 1252,191 L 1251,191 L 1251,190 L 1250,190 L 1250,189 L 1248,189 L 1247,189 L 1247,188 L 1245,188 L 1243,188 L 1241,188 L 1240,188 Z" fill="#132f55"/>
  <path d="M 1294,182 L 1296,182 L 1298,182 L 1300,182 L 1302,182 L 1304,182 L 1304,183 L 1306,183 L 1307,183 L 1307,184 L 1308,184 L 1308,185 L 1309,185 L 1309,186 L 1310,186 L 1310,187 L 1311,187 L 1311,188 L 1312,188 L 1312,190 L 1313,190 L 1313,192 L 1314,192 L 1314,194 L 1314,196 L 1314,198 L 1314,200 L 1314,202 L 1314,204 L 1314,206 L 1314,208 L 1314,210 L 1314,212 L 1314,214 L 1314,216 L 1314,218 L 1314,220 L 1312,220 L 1310,220 L 1308,220 L 1308,218 L 1308,216 L 1308,214 L 1308,212 L 1308,210 L 1308,208 L 1308,206 L 1308,204 L 1308,202 L 1308,200 L 1308,199 L 1307,199 L 1307,197 L 1307,195 L 1307,193 L 1306,193 L 1306,191 L 1305,191 L 1305,190 L 1304,190 L 1304,189 L 1302,189 L 1302,188 L 1300,188 L 1298,188 L 1296,188 L 1294,188 L 1294,189 L 1292,189 L 1292,190 L 1290,190 L 1290,192 L 1289,192 L 1289,193 L 1288,193 L 1288,195 L 1288,197 L 1287,197 L 1287,199 L 1287,201 L 1287,203 L 1287,205 L 1287,207 L 1287,209 L 1287,211 L 1287,213 L 1287,215 L 1287,217 L 1287,219 L 1287,220 L 1285,220 L 1283,220 L 1281,220 L 1281,218 L 1281,216 L 1281,214 L 1281,212 L 1281,210 L 1281,208 L 1281,206 L 1281,204 L 1281,202 L 1281,200 L 1281,198 L 1281,196 L 1281,194 L 1281,192 L 1281,190 L 1281,188 L 1281,186 L 1281,184 L 1281,183 L 1283,183 L 1285,183 L 1287,183 L 1287,185 L 1287,187 L 1288,187 L 1288,186 L 1289,186 L 1289,185 L 1290,185 L 1290,184 L 1292,184 L 1292,183 L 1294,183 L 1294,182 Z" fill="#132f55"/>
  <path d="M 1105,183 L 1107,183 L 1109,183 L 1111,183 L 1111,185 L 1111,187 L 1111,189 L 1111,191 L 1111,193 L 1111,195 L 1111,197 L 1111,199 L 1111,201 L 1111,203 L 1111,205 L 1111,207 L 1112,207 L 1112,209 L 1112,210 L 1113,210 L 1113,212 L 1114,212 L 1114,213 L 1115,213 L 1115,214 L 1117,214 L 1117,215 L 1119,215 L 1121,215 L 1123,215 L 1125,215 L 1125,214 L 1127,214 L 1127,213 L 1128,213 L 1128,212 L 1129,212 L 1129,211 L 1130,211 L 1130,210 L 1131,210 L 1131,208 L 1131,206 L 1132,206 L 1132,204 L 1132,202 L 1132,200 L 1132,198 L 1132,196 L 1132,194 L 1132,192 L 1132,190 L 1132,188 L 1132,186 L 1132,184 L 1132,183 L 1134,183 L 1136,183 L 1138,183 L 1138,185 L 1138,187 L 1138,189 L 1138,191 L 1138,193 L 1138,195 L 1138,197 L 1138,199 L 1138,201 L 1138,203 L 1138,205 L 1138,207 L 1138,209 L 1138,211 L 1138,213 L 1138,215 L 1138,217 L 1138,219 L 1138,220 L 1136,220 L 1134,220 L 1132,220 L 1132,218 L 1132,216 L 1132,215 L 1131,215 L 1131,217 L 1130,217 L 1130,218 L 1128,218 L 1128,219 L 1127,219 L 1127,220 L 1125,220 L 1124,220 L 1124,221 L 1122,221 L 1120,221 L 1118,221 L 1116,221 L 1114,221 L 1114,220 L 1112,220 L 1112,219 L 1111,219 L 1111,218 L 1109,218 L 1109,217 L 1108,217 L 1108,215 L 1107,215 L 1107,214 L 1106,214 L 1106,212 L 1106,211 L 1105,211 L 1105,209 L 1105,207 L 1105,205 L 1105,203 L 1105,201 L 1105,199 L 1105,197 L 1105,195 L 1105,193 L 1105,191 L 1105,189 L 1105,187 L 1105,185 L 1105,183 Z" fill="#132f55"/>
  <path d="M 657,169 L 659,169 L 661,169 L 663,169 L 665,169 L 667,169 L 669,169 L 671,169 L 673,169 L 675,169 L 677,169 L 679,169 L 681,169 L 683,169 L 685,169 L 687,169 L 689,169 L 691,169 L 693,169 L 695,169 L 697,169 L 698,169 L 698,171 L 698,173 L 698,175 L 696,175 L 694,175 L 692,175 L 690,175 L 688,175 L 686,175 L 684,175 L 682,175 L 681,175 L 681,177 L 681,179 L 681,181 L 681,183 L 681,185 L 681,187 L 681,189 L 681,191 L 681,193 L 681,195 L 681,197 L 681,199 L 681,201 L 681,203 L 681,205 L 681,207 L 681,209 L 681,211 L 681,213 L 681,215 L 681,217 L 681,219 L 681,220 L 679,220 L 677,220 L 675,220 L 674,220 L 674,218 L 674,216 L 674,214 L 674,212 L 674,210 L 674,208 L 674,206 L 674,204 L 674,202 L 674,200 L 674,198 L 674,196 L 674,194 L 674,192 L 674,190 L 674,188 L 674,186 L 674,184 L 674,182 L 674,180 L 674,178 L 674,176 L 674,175 L 672,175 L 670,175 L 668,175 L 666,175 L 664,175 L 662,175 L 660,175 L 658,175 L 657,175 L 657,173 L 657,171 L 657,169 Z" fill="#132f55"/>
  <path d="M 91,188 L 90,188 L 90,189 L 88,189 L 88,190 L 87,190 L 87,191 L 86,191 L 86,192 L 85,192 L 85,193 L 84,193 L 84,194 L 83,194 L 83,196 L 83,197 L 82,197 L 82,199 L 82,201 L 82,203 L 82,205 L 82,206 L 83,206 L 83,208 L 83,209 L 84,209 L 84,210 L 85,210 L 85,211 L 86,211 L 86,212 L 87,212 L 87,213 L 88,213 L 88,214 L 90,214 L 90,215 L 92,215 L 94,215 L 96,215 L 98,215 L 99,215 L 99,214 L 101,214 L 101,213 L 103,213 L 103,212 L 104,212 L 104,211 L 105,211 L 105,209 L 106,209 L 106,207 L 107,207 L 107,205 L 107,203 L 107,201 L 107,199 L 107,197 L 106,197 L 106,195 L 106,194 L 105,194 L 105,193 L 104,193 L 104,192 L 103,192 L 103,191 L 102,191 L 102,190 L 101,190 L 101,189 L 99,189 L 98,189 L 98,188 L 96,188 L 94,188 L 92,188 L 91,188 Z" fill="#132f55"/>
  <path d="M 454,182 L 456,182 L 458,182 L 460,182 L 462,182 L 463,182 L 463,183 L 465,183 L 467,183 L 467,184 L 469,184 L 469,185 L 471,185 L 471,186 L 472,186 L 472,188 L 471,188 L 471,190 L 470,190 L 470,191 L 468,191 L 468,190 L 466,190 L 465,190 L 465,189 L 463,189 L 463,188 L 461,188 L 459,188 L 457,188 L 455,188 L 454,188 L 454,189 L 453,189 L 453,190 L 452,190 L 452,191 L 451,191 L 451,193 L 451,195 L 452,195 L 452,196 L 454,196 L 454,197 L 456,197 L 457,197 L 457,198 L 459,198 L 461,198 L 461,199 L 463,199 L 464,199 L 464,200 L 466,200 L 467,200 L 467,201 L 468,201 L 468,202 L 469,202 L 469,203 L 470,203 L 470,204 L 471,204 L 471,205 L 472,205 L 472,207 L 472,209 L 472,211 L 472,213 L 472,215 L 471,215 L 471,216 L 470,216 L 470,218 L 469,218 L 469,219 L 467,219 L 467,220 L 465,220 L 464,220 L 464,221 L 462,221 L 460,221 L 458,221 L 456,221 L 454,221 L 453,221 L 453,220 L 451,220 L 450,220 L 450,219 L 448,219 L 447,219 L 447,218 L 446,218 L 446,217 L 444,217 L 444,216 L 443,216 L 443,214 L 444,214 L 444,212 L 445,212 L 445,211 L 447,211 L 447,212 L 449,212 L 449,213 L 451,213 L 451,214 L 453,214 L 454,214 L 454,215 L 456,215 L 458,215 L 460,215 L 462,215 L 464,215 L 464,214 L 465,214 L 465,213 L 466,213 L 466,211 L 466,209 L 466,208 L 465,208 L 465,207 L 464,207 L 464,206 L 462,206 L 462,205 L 460,205 L 459,205 L 459,204 L 457,204 L 455,204 L 455,203 L 453,203 L 452,203 L 452,202 L 450,202 L 450,201 L 448,201 L 448,200 L 447,200 L 447,199 L 446,199 L 446,197 L 445,197 L 445,195 L 444,195 L 444,193 L 444,192 L 445,192 L 445,190 L 445,188 L 446,188 L 446,187 L 447,187 L 447,186 L 448,186 L 448,185 L 449,185 L 449,184 L 451,184 L 451,183 L 453,183 L 454,183 L 454,182 Z" fill="#132f55"/>
  <path d="M 1067,182 L 1069,182 L 1071,182 L 1073,182 L 1075,182 L 1077,182 L 1077,183 L 1079,183 L 1080,183 L 1080,184 L 1082,184 L 1082,185 L 1084,185 L 1084,186 L 1085,186 L 1085,187 L 1086,187 L 1086,188 L 1087,188 L 1087,190 L 1086,190 L 1086,192 L 1085,192 L 1085,193 L 1084,193 L 1084,194 L 1083,194 L 1083,193 L 1082,193 L 1082,192 L 1081,192 L 1081,191 L 1080,191 L 1080,190 L 1078,190 L 1078,189 L 1076,189 L 1076,188 L 1074,188 L 1072,188 L 1070,188 L 1068,188 L 1068,189 L 1066,189 L 1066,190 L 1064,190 L 1064,191 L 1063,191 L 1063,192 L 1062,192 L 1062,193 L 1061,193 L 1061,195 L 1060,195 L 1060,197 L 1060,198 L 1059,198 L 1059,200 L 1059,202 L 1059,204 L 1059,205 L 1060,205 L 1060,207 L 1060,208 L 1061,208 L 1061,210 L 1062,210 L 1062,211 L 1063,211 L 1063,212 L 1064,212 L 1064,213 L 1066,213 L 1066,214 L 1068,214 L 1068,215 L 1070,215 L 1072,215 L 1074,215 L 1076,215 L 1077,215 L 1077,214 L 1079,214 L 1079,213 L 1080,213 L 1080,212 L 1082,212 L 1082,211 L 1083,211 L 1083,210 L 1084,210 L 1084,211 L 1085,211 L 1085,212 L 1086,212 L 1086,213 L 1087,213 L 1087,215 L 1086,215 L 1086,216 L 1085,216 L 1085,217 L 1084,217 L 1084,218 L 1082,218 L 1082,219 L 1080,219 L 1080,220 L 1078,220 L 1078,221 L 1076,221 L 1074,221 L 1072,221 L 1070,221 L 1068,221 L 1066,221 L 1066,220 L 1064,220 L 1064,219 L 1062,219 L 1062,218 L 1060,218 L 1060,217 L 1059,217 L 1059,216 L 1058,216 L 1058,215 L 1057,215 L 1057,214 L 1056,214 L 1056,213 L 1055,213 L 1055,211 L 1054,211 L 1054,209 L 1053,209 L 1053,207 L 1053,205 L 1052,205 L 1052,203 L 1052,201 L 1052,199 L 1053,199 L 1053,197 L 1053,195 L 1054,195 L 1054,193 L 1054,192 L 1055,192 L 1055,191 L 1056,191 L 1056,189 L 1057,189 L 1057,188 L 1058,188 L 1058,187 L 1059,187 L 1059,186 L 1061,186 L 1061,185 L 1062,185 L 1062,184 L 1064,184 L 1064,183 L 1066,183 L 1067,183 L 1067,182 Z" fill="#132f55"/>
  <path d="M 950,183 L 952,183 L 954,183 L 956,183 L 958,183 L 958,185 L 959,185 L 959,186 L 960,186 L 960,188 L 961,188 L 961,189 L 962,189 L 962,190 L 963,190 L 963,192 L 964,192 L 964,193 L 965,193 L 965,194 L 966,194 L 966,196 L 967,196 L 967,197 L 968,197 L 968,196 L 969,196 L 969,195 L 970,195 L 970,193 L 971,193 L 971,192 L 972,192 L 972,190 L 973,190 L 973,189 L 974,189 L 974,188 L 975,188 L 975,186 L 976,186 L 976,185 L 977,185 L 977,184 L 978,184 L 978,183 L 980,183 L 982,183 L 984,183 L 985,183 L 985,185 L 984,185 L 984,186 L 983,186 L 983,187 L 982,187 L 982,188 L 981,188 L 981,189 L 980,189 L 980,191 L 979,191 L 979,192 L 978,192 L 978,193 L 977,193 L 977,195 L 976,195 L 976,196 L 975,196 L 975,197 L 974,197 L 974,198 L 973,198 L 973,200 L 972,200 L 972,201 L 971,201 L 971,202 L 972,202 L 972,203 L 973,203 L 973,204 L 974,204 L 974,205 L 975,205 L 975,207 L 976,207 L 976,208 L 977,208 L 977,209 L 978,209 L 978,210 L 979,210 L 979,212 L 980,212 L 980,213 L 981,213 L 981,214 L 982,214 L 982,216 L 983,216 L 983,217 L 984,217 L 984,218 L 985,218 L 985,219 L 986,219 L 986,220 L 984,220 L 982,220 L 980,220 L 978,220 L 978,219 L 977,219 L 977,217 L 976,217 L 976,216 L 975,216 L 975,215 L 974,215 L 974,214 L 973,214 L 973,212 L 972,212 L 972,211 L 971,211 L 971,210 L 970,210 L 970,208 L 969,208 L 969,207 L 968,207 L 968,206 L 967,206 L 967,207 L 966,207 L 966,208 L 965,208 L 965,209 L 964,209 L 964,211 L 963,211 L 963,212 L 962,212 L 962,213 L 961,213 L 961,215 L 960,215 L 960,216 L 959,216 L 959,217 L 958,217 L 958,219 L 957,219 L 957,220 L 955,220 L 953,220 L 951,220 L 950,220 L 950,218 L 951,218 L 951,217 L 952,217 L 952,216 L 953,216 L 953,214 L 954,214 L 954,213 L 955,213 L 955,212 L 956,212 L 956,210 L 957,210 L 957,209 L 958,209 L 958,208 L 959,208 L 959,206 L 960,206 L 960,205 L 961,205 L 961,204 L 962,204 L 962,203 L 963,203 L 963,201 L 963,200 L 962,200 L 962,199 L 961,199 L 961,198 L 960,198 L 960,197 L 959,197 L 959,195 L 958,195 L 958,194 L 957,194 L 957,193 L 956,193 L 956,191 L 955,191 L 955,190 L 954,190 L 954,189 L 953,189 L 953,187 L 952,187 L 952,186 L 951,186 L 951,185 L 950,185 L 950,183 Z" fill="#132f55"/>
  </g>
</svg>
